<?xml version="1.0" standalone="no"?>
<!DOCTYPE svg PUBLIC "-//W3C//DTD SVG 20010904//EN"
 "http://www.w3.org/TR/2001/REC-SVG-20010904/DTD/svg10.dtd">
<svg version="1.0" xmlns="http://www.w3.org/2000/svg"
 width="900.000000pt" height="780.000000pt" viewBox="0 0 900.000000 780.000000"
 preserveAspectRatio="xMidYMid meet">

<g transform="translate(0.000000,780.000000) scale(0.100000,-0.100000)"
fill="#000000" stroke="none">
<path d="M7690 7531 c0 -4 4 -11 10 -17 13 -13 -5 -39 -20 -29 -6 4 -10 16 -7
26 6 21 -2 23 -52 13 -18 -4 -28 -11 -24 -17 4 -6 0 -8 -10 -4 -18 7 -32 -7
-22 -23 5 -8 11 -7 21 1 11 9 14 7 15 -12 1 -21 3 -20 17 11 13 29 16 32 20
15 2 -11 11 -24 19 -28 10 -6 12 -18 8 -38 l-7 -30 25 23 c13 13 28 34 32 48
4 14 13 34 20 45 11 18 10 20 -16 21 -16 1 -29 -2 -29 -5z"/>
<path d="M7770 7521 c5 -11 9 -25 8 -32 -2 -6 7 -13 19 -15 16 -3 28 4 39 21
20 31 18 34 -35 41 -40 5 -42 4 -31 -15z"/>
<path d="M7860 7510 c-8 -5 -11 -10 -6 -10 5 0 3 -6 -3 -14 -8 -10 -8 -16 1
-24 10 -7 17 -1 29 24 17 35 9 43 -21 24z"/>
<path d="M7750 7500 c0 -5 5 -10 10 -10 6 0 10 5 10 10 0 6 -4 10 -10 10 -5 0
-10 -4 -10 -10z"/>
<path d="M7493 7483 c-7 -2 -13 -14 -13 -26 0 -20 0 -20 15 -1 14 18 14 18 15
-10 0 -35 15 -25 25 17 6 22 4 27 -11 26 -11 0 -25 -3 -31 -6z"/>
<path d="M7912 7484 c4 -3 2 -18 -2 -34 -7 -24 -5 -28 7 -23 8 3 18 0 23 -7 6
-9 13 -8 34 5 30 20 33 14 10 -21 -23 -34 -12 -40 28 -17 37 21 40 33 12 48
-11 6 -36 20 -55 33 -32 20 -72 31 -57 16z"/>
<path d="M1340 7469 c0 -5 7 -20 16 -34 13 -21 19 -22 45 -13 16 5 29 17 29
25 0 9 -6 13 -14 10 -10 -4 -13 -1 -10 7 3 9 -6 13 -31 14 -19 1 -35 -3 -35
-9z"/>
<path d="M1439 7466 c4 -6 11 -23 15 -38 3 -15 18 -40 32 -55 l27 -28 -5 28
c-4 19 -1 30 8 34 8 3 14 15 14 27 1 20 1 20 15 2 12 -16 17 -17 30 -6 12 10
15 10 15 -4 0 -10 5 -14 10 -11 34 21 -24 52 -108 58 -44 3 -59 1 -53 -7z m70
-15 c2 -1 -2 -8 -9 -16 -14 -16 -30 -11 -30 10 0 11 7 12 39 6z"/>
<path d="M1304 7448 c3 -7 9 -21 12 -30 7 -21 24 -24 24 -5 -1 14 -24 47 -34
47 -4 0 -5 -6 -2 -12z"/>
<path d="M7450 7450 c0 -5 -7 -7 -15 -4 -11 5 -15 -1 -15 -25 0 -17 5 -31 10
-31 6 0 10 8 10 17 0 9 7 25 17 35 9 11 11 18 5 18 -7 0 -12 -4 -12 -10z"/>
<path d="M7565 7451 c-3 -5 -1 -12 5 -16 5 -3 10 1 10 9 0 18 -6 21 -15 7z"/>
<path d="M1633 7442 c-7 -4 -10 -16 -8 -27 2 -11 4 -26 4 -32 2 -26 21 -12 21
14 0 24 1 25 13 9 13 -17 14 -17 28 0 8 11 9 15 2 10 -7 -4 -13 -3 -13 3 0 15
-34 31 -47 23z"/>
<path d="M1236 7417 c2 -15 0 -16 -11 -7 -24 20 -29 -10 -5 -34 16 -15 24 -17
27 -8 3 6 11 12 18 12 7 0 16 -6 19 -12 3 -7 2 0 -1 17 -4 16 -6 34 -6 40 0 6
-10 11 -23 11 -16 0 -21 -5 -18 -19z"/>
<path d="M7357 7417 c-20 -11 -37 -25 -37 -30 0 -5 6 -4 14 2 7 6 21 9 30 5 9
-3 16 -1 16 6 0 6 4 9 9 6 5 -3 11 1 15 9 9 24 -8 25 -47 2z"/>
<path d="M1712 7386 c5 -35 18 -45 18 -13 0 14 -5 29 -10 32 -7 4 -10 -3 -8
-19z"/>
<path d="M1580 7390 c0 -5 5 -10 10 -10 6 0 10 5 10 10 0 6 -4 10 -10 10 -5 0
-10 -4 -10 -10z"/>
<path d="M8045 7392 c-11 -7 -35 -48 -35 -57 0 -4 5 -3 11 1 8 5 10 -3 7 -25
-3 -22 -1 -31 9 -31 9 0 12 7 9 18 -5 16 19 60 28 51 3 -2 6 -28 7 -56 2 -49
4 -52 26 -47 24 7 30 -5 12 -23 -8 -8 -8 -13 0 -17 6 -4 11 -15 11 -25 0 -10
9 -21 19 -24 25 -6 18 -44 -13 -69 -14 -12 -16 -18 -7 -18 11 0 10 -5 -4 -20
-10 -11 -15 -20 -10 -20 4 0 18 11 31 25 24 26 44 33 44 15 0 -5 7 -10 15 -10
18 0 19 -11 3 -30 -11 -12 -10 -12 5 -1 14 11 20 11 32 1 17 -14 21 -35 5 -25
-5 3 -7 0 -4 -8 3 -8 1 -18 -5 -22 -15 -8 -14 -55 0 -55 8 0 8 -5 -1 -15 -10
-12 -10 -15 3 -15 22 0 27 -22 10 -42 -13 -14 -11 -17 17 -23 29 -6 30 -8 13
-21 -17 -13 -17 -13 6 -14 20 0 21 -2 11 -15 -10 -12 -9 -15 6 -15 16 0 19 8
20 52 1 29 4 74 7 99 6 40 3 49 -18 69 -14 13 -30 42 -36 64 -12 49 -19 67
-47 126 -12 25 -22 50 -22 56 0 6 -11 21 -25 34 -14 13 -25 27 -25 32 0 8 -93
108 -100 108 -3 0 -9 -4 -15 -8z m255 -456 c0 -3 -4 -8 -10 -11 -5 -3 -10 -1
-10 4 0 6 5 11 10 11 6 0 10 -2 10 -4z"/>
<path d="M1103 7329 c-35 -34 -63 -64 -63 -68 0 -5 -9 -16 -20 -26 -28 -26
-81 -136 -99 -210 -6 -22 -20 -48 -31 -57 -21 -19 -21 -34 -5 -140 7 -42 11
-48 31 -48 13 0 24 5 24 10 0 6 -4 9 -9 8 -5 -2 -9 2 -10 7 -1 6 4 11 9 11 6
1 13 3 18 4 4 1 12 2 17 0 6 -1 -1 9 -14 21 -23 22 -23 23 -5 36 16 12 17 15
4 23 -13 8 -13 10 1 10 12 0 15 7 11 25 -2 14 -8 28 -13 30 -4 3 -6 13 -3 23
3 9 8 23 10 31 3 11 7 11 19 1 13 -11 14 -10 9 4 -4 11 -1 16 11 16 9 0 13 5
10 11 -5 7 5 8 32 3 38 -7 38 -7 17 12 -12 10 -24 33 -27 50 -5 26 -3 30 16
30 14 -1 21 4 19 13 -2 8 3 18 9 22 10 6 10 11 -2 25 -13 16 -12 17 14 10 24
-6 27 -4 28 19 1 14 3 30 4 35 1 6 3 17 4 26 1 13 4 14 16 4 18 -15 20 -37 3
-42 -7 -3 -6 -7 5 -11 13 -5 17 -1 17 17 0 14 6 26 13 29 9 3 9 7 -1 19 -10
13 -9 18 5 29 9 8 14 9 10 3 -7 -12 21 -29 32 -19 8 8 -25 60 -41 62 -7 2 -41
-24 -75 -58z m-189 -398 c3 -5 -1 -11 -9 -14 -9 -4 -12 -1 -8 9 6 16 10 17 17
5z"/>
<path d="M1750 7378 c0 -19 37 -41 43 -25 3 9 8 9 20 -2 10 -8 17 -9 17 -3 0
11 -17 25 -35 28 -5 1 -18 5 -27 9 -12 5 -18 3 -18 -7z"/>
<path d="M7265 7367 c-15 -12 -16 -15 -4 -22 8 -5 11 -5 7 0 -4 4 0 14 10 21
23 18 11 18 -13 1z"/>
<path d="M7223 7334 c-20 -21 -16 -42 3 -22 9 9 15 21 13 26 -2 6 -9 4 -16 -4z"/>
<path d="M1866 7318 c53 -60 64 -68 64 -44 0 8 -9 18 -20 21 -11 3 -25 15 -30
26 -6 10 -16 19 -22 19 -6 0 -3 -10 8 -22z"/>
<path d="M2018 7203 c7 -3 16 -2 19 1 4 3 -2 6 -13 5 -11 0 -14 -3 -6 -6z"/>
<path d="M6910 7110 c0 -5 5 -10 11 -10 5 0 7 5 4 10 -3 6 -8 10 -11 10 -2 0
-4 -4 -4 -10z"/>
<path d="M2180 7070 c0 -5 5 -10 10 -10 6 0 10 5 10 10 0 6 -4 10 -10 10 -5 0
-10 -4 -10 -10z"/>
<path d="M1047 7029 c7 -7 15 -10 18 -7 3 3 -2 9 -12 12 -14 6 -15 5 -6 -5z"/>
<path d="M6825 7020 c-3 -5 -1 -10 4 -10 6 0 11 5 11 10 0 6 -2 10 -4 10 -3 0
-8 -4 -11 -10z"/>
<path d="M2260 7001 c0 -6 4 -13 10 -16 6 -3 7 1 4 9 -7 18 -14 21 -14 7z"/>
<path d="M900 6670 c0 -6 7 -10 15 -10 8 0 15 2 15 4 0 2 -7 6 -15 10 -8 3
-15 1 -15 -4z"/>
<path d="M8296 6666 c5 -14 -20 -46 -37 -46 -5 0 -9 -4 -9 -8 0 -5 13 -7 29
-4 25 3 30 9 33 38 3 23 0 34 -9 34 -7 0 -10 -6 -7 -14z"/>
<path d="M912 6628 c2 -18 10 -24 33 -25 l30 -2 -27 10 c-17 7 -25 15 -21 25
3 8 0 14 -7 14 -6 0 -10 -10 -8 -22z"/>
<path d="M8268 6573 c-10 -3 -18 -9 -18 -14 0 -12 37 -12 45 0 7 12 -5 19 -27
14z"/>
<path d="M930 6562 c0 -5 7 -13 16 -16 10 -4 14 -1 12 6 -5 15 -28 23 -28 10z"/>
<path d="M8215 6480 c3 -5 8 -10 11 -10 2 0 4 5 4 10 0 6 -5 10 -11 10 -5 0
-7 -4 -4 -10z"/>
<path d="M990 6385 c0 -8 6 -15 14 -15 22 0 28 17 10 24 -22 9 -24 8 -24 -9z"/>
<path d="M8203 6388 c2 -7 10 -13 17 -13 7 0 15 6 18 13 2 7 -5 12 -18 12 -13
0 -20 -5 -17 -12z"/>
<path d="M3083 6160 c-15 -23 -17 -42 -3 -20 8 12 10 10 10 -8 0 -13 -4 -20
-10 -17 -5 3 -10 -3 -10 -14 0 -12 -4 -21 -10 -21 -5 0 -10 9 -10 20 0 38 -19
20 -26 -25 -3 -25 -10 -45 -15 -45 -5 0 -9 -6 -9 -14 0 -29 -25 -21 -42 13 -9
20 -17 29 -17 20 -1 -9 -8 -22 -16 -29 -8 -7 -15 -23 -15 -36 0 -13 -5 -24
-10 -24 -6 0 -8 12 -5 28 5 24 4 23 -10 -7 -8 -18 -15 -40 -15 -48 0 -8 -4
-11 -10 -8 -6 4 -10 -6 -10 -24 0 -16 -6 -31 -12 -34 -10 -4 -10 -7 0 -18 16
-18 15 -29 -3 -29 -16 0 -20 -12 -8 -24 4 -4 6 -23 4 -43 -2 -32 -1 -35 12
-21 8 8 16 23 18 33 6 29 24 28 39 -2 7 -16 13 -31 12 -35 -1 -3 5 -12 13 -18
8 -7 15 -19 15 -27 0 -23 -36 18 -44 51 -8 32 -16 29 -20 -7 -2 -18 3 -28 20
-36 14 -6 24 -20 26 -37 3 -24 10 -30 48 -39 51 -13 104 -5 59 9 l-24 8 24 7
25 7 -29 21 -29 21 42 -3 c37 -2 40 0 32 16 -12 21 0 32 27 23 10 -3 0 10 -22
31 -22 20 -33 33 -25 28 20 -10 60 -11 60 -1 0 4 -4 8 -9 8 -5 0 -11 7 -15 15
-4 13 -2 14 14 5 16 -9 24 -7 37 5 14 15 14 17 -7 22 -16 4 -18 8 -8 14 10 7
9 9 -4 9 -10 0 -18 5 -18 11 0 5 8 9 18 8 46 -4 52 0 42 27 -9 22 -8 25 5 20
12 -4 10 2 -6 26 -22 30 -22 31 -3 26 38 -10 60 47 30 78 -17 17 -30 19 -20 3
4 -7 1 -10 -7 -7 -17 5 -25 58 -10 58 6 0 11 -8 11 -17 1 -16 2 -16 16 2 17
23 14 51 -5 47 -7 -1 -19 5 -27 15 -12 17 -14 15 -20 -14 -9 -43 -22 -42 -26
2 -3 33 -4 34 -15 15z m87 -161 c0 -18 -10 -8 -25 24 l-16 32 21 -24 c11 -13
20 -27 20 -32z m-240 -46 c-11 -17 -11 -17 -6 0 3 10 6 24 7 30 0 9 2 9 5 0 3
-7 0 -20 -6 -30z m-20 -17 c0 -22 -11 -46 -21 -46 -10 0 -12 43 -2 53 11 12
23 8 23 -7z m24 -121 c3 -8 1 -15 -4 -15 -6 0 -10 7 -10 15 0 8 2 15 4 15 2 0
6 -7 10 -15z"/>
<path d="M5984 6147 c-6 -29 -7 -30 -15 -11 -9 27 -29 40 -29 21 0 -10 -8 -13
-25 -9 -28 5 -30 1 -13 -44 10 -28 9 -36 -5 -52 -18 -20 -23 -37 -8 -28 5 4
11 0 14 -6 3 -9 11 -5 26 12 l21 25 -12 -28 c-10 -23 -16 -27 -37 -22 -21 5
-23 4 -12 -9 8 -9 25 -16 40 -16 25 -1 25 -1 6 -13 -21 -13 -31 -37 -16 -37
10 0 9 -19 -2 -37 -6 -9 1 -11 24 -8 46 6 53 -3 23 -30 -32 -30 -23 -49 18
-40 38 9 30 -8 -16 -36 -38 -23 -27 -25 16 -3 29 15 31 15 24 -2 -6 -17 -6
-17 14 1 11 10 23 15 26 12 4 -3 -10 -16 -30 -28 -46 -27 -46 -33 2 -26 20 4
32 3 26 -1 -6 -4 -14 -15 -17 -26 -5 -13 -3 -17 7 -13 8 3 16 1 18 -5 3 -8 11
-7 28 1 21 10 21 8 -5 -13 l-30 -26 25 0 c23 -1 24 -2 7 -14 -25 -19 -5 -30
36 -20 17 5 39 9 47 9 16 0 31 55 23 85 -3 10 8 37 23 61 l28 44 10 -37 c10
-41 29 -52 25 -15 -2 12 3 32 9 45 11 18 10 22 -3 22 -17 0 -19 9 -5 30 6 9 5
17 -3 22 -12 7 -13 11 -16 44 0 8 -5 12 -11 9 -9 -5 -11 -1 -10 20 0 7 -30 65
-34 65 -2 0 -1 -12 2 -26 3 -19 1 -25 -7 -20 -6 4 -11 15 -11 24 0 9 -9 30
-19 46 l-19 29 -10 -44 c-5 -24 -10 -36 -11 -26 -1 10 -6 15 -12 12 -13 -8
-38 23 -39 48 0 9 5 17 10 17 6 0 10 -7 10 -17 0 -9 3 -14 6 -10 3 3 3 15 -1
26 -4 14 -11 18 -23 14 -15 -6 -15 -5 -3 10 8 10 11 20 7 24 -3 3 -6 1 -6 -7
0 -10 -3 -10 -15 0 -13 11 -15 8 -15 -13 0 -18 -4 -25 -14 -21 -8 3 -12 14 -9
27 4 18 3 19 -6 7 -9 -13 -11 -11 -11 7 0 12 4 23 9 25 5 2 3 8 -4 15 -11 10
-15 6 -21 -20z m-53 -84 c-9 -15 -10 -13 -11 13 0 17 3 34 8 38 11 12 14 -32
3 -51z m226 -85 c-3 -7 -5 -2 -5 12 0 14 2 19 5 13 2 -7 2 -19 0 -25z m14 -31
c-10 -9 -11 -8 -5 6 3 10 9 15 12 12 3 -3 0 -11 -7 -18z m47 -20 c4 -29 -12
-37 -22 -11 -10 26 -7 46 7 42 6 -3 13 -17 15 -31z m-42 -114 c-10 -10 -19 5
-10 18 6 11 8 11 12 0 2 -7 1 -15 -2 -18z m-6 -113 c0 -5 -4 -10 -10 -10 -5 0
-10 5 -10 10 0 6 5 10 10 10 6 0 10 -4 10 -10z"/>
<path d="M6110 6161 c0 -6 4 -13 10 -16 6 -3 7 1 4 9 -7 18 -14 21 -14 7z"/>
<path d="M5823 6113 c-3 -10 -8 -22 -11 -27 -3 -5 0 -6 5 -3 11 7 25 47 17 47
-3 0 -7 -8 -11 -17z"/>
<path d="M2961 6104 c0 -11 3 -14 6 -6 3 7 2 16 -1 19 -3 4 -6 -2 -5 -13z"/>
<path d="M3001 6085 c-7 -20 -11 -39 -8 -41 7 -7 30 53 25 66 -2 6 -9 -5 -17
-25z"/>
<path d="M3247 6099 c4 -13 8 -18 11 -10 2 7 -1 18 -6 23 -8 8 -9 4 -5 -13z"/>
<path d="M5862 6095 c0 -16 2 -22 5 -12 2 9 2 23 0 30 -3 6 -5 -1 -5 -18z"/>
<path d="M3215 6069 c-11 -16 -1 -19 13 -3 7 8 8 14 3 14 -5 0 -13 -5 -16 -11z"/>
<path d="M1386 6017 c3 -8 13 -17 22 -20 9 -3 25 -8 35 -12 10 -4 17 -3 17 4
0 6 -7 11 -15 11 -9 0 -27 7 -41 16 -21 14 -24 14 -18 1z"/>
<path d="M6301 6014 c0 -11 3 -14 6 -6 3 7 2 16 -1 19 -3 4 -6 -2 -5 -13z"/>
<path d="M7730 6004 c-22 -8 -28 -13 -15 -13 11 0 34 6 50 14 38 17 11 17 -35
-1z"/>
<path d="M6250 5980 c0 -5 5 -10 10 -10 6 0 10 5 10 10 0 6 -4 10 -10 10 -5 0
-10 -4 -10 -10z"/>
<path d="M7750 5980 c-13 -8 -13 -10 2 -10 9 0 20 5 23 10 8 13 -5 13 -25 0z"/>
<path d="M2834 5969 c-3 -6 -1 -16 5 -22 8 -8 11 -5 11 11 0 24 -5 28 -16 11z"/>
<path d="M7634 5953 c4 -4 -10 -15 -31 -25 -22 -10 -31 -17 -20 -17 25 -1 16
-25 -11 -29 -29 -4 -28 -18 2 -26 35 -9 119 20 144 49 29 34 28 41 -9 49 -43
8 -84 8 -75 -1z"/>
<path d="M1434 5938 c-8 -12 38 -56 69 -67 16 -6 26 -15 23 -20 -7 -11 28 -43
37 -35 4 4 -1 12 -10 19 -14 10 -9 13 28 20 l44 7 -35 15 c-31 14 -33 16 -15
23 18 8 17 10 -12 21 -18 8 -33 17 -33 21 0 10 -90 6 -96 -4z"/>
<path d="M6317 5920 c3 -11 7 -20 9 -20 2 0 4 9 4 20 0 11 -4 20 -9 20 -5 0
-7 -9 -4 -20z"/>
<path d="M2770 5911 c0 -5 5 -13 10 -16 6 -3 10 -2 10 4 0 5 -4 13 -10 16 -5
3 -10 2 -10 -4z"/>
<path d="M6302 5850 c0 -14 2 -19 5 -12 2 6 2 18 0 25 -3 6 -5 1 -5 -13z"/>
<path d="M2790 5853 c0 -5 5 -15 10 -23 8 -12 10 -11 10 8 0 12 -4 22 -10 22
-5 0 -10 -3 -10 -7z"/>
<path d="M7615 5841 c-6 -11 9 -23 19 -14 9 9 7 23 -3 23 -6 0 -12 -4 -16 -9z"/>
<path d="M7538 5833 c6 -2 18 -2 25 0 6 3 1 5 -13 5 -14 0 -19 -2 -12 -5z"/>
<path d="M7590 5831 c0 -6 4 -13 10 -16 6 -3 7 1 4 9 -7 18 -14 21 -14 7z"/>
<path d="M6206 5737 c-9 -35 -7 -40 9 -27 17 14 20 36 6 44 -5 3 -11 -4 -15
-17z"/>
<path d="M3330 5690 c0 -5 7 -10 16 -10 8 0 12 5 9 10 -3 6 -10 10 -16 10 -5
0 -9 -4 -9 -10z"/>
<path d="M6130 5603 c-14 -7 -19 -13 -12 -13 7 0 10 -4 7 -10 -3 -5 3 -10 14
-10 24 0 48 36 28 42 -6 3 -23 -1 -37 -9z"/>
<path d="M2920 5604 c0 -19 17 -33 45 -39 23 -5 26 -4 15 4 -13 9 -13 11 0 11
21 0 0 17 -32 25 -16 4 -28 3 -28 -1z"/>
<path d="M3258 5593 c7 -3 16 -2 19 1 4 3 -2 6 -13 5 -11 0 -14 -3 -6 -6z"/>
<path d="M6189 5571 c-9 -9 -26 -23 -38 -32 -21 -16 -21 -17 -3 -21 24 -7 32
-1 55 34 19 31 10 43 -14 19z"/>
<path d="M3117 5573 c-10 -9 -9 -23 2 -23 5 0 11 7 15 15 5 15 -5 20 -17 8z"/>
<path d="M2908 5540 c17 -29 36 -38 46 -22 8 13 -7 30 -36 41 l-26 10 16 -29z"/>
<path d="M3106 5525 c-10 -8 -16 -21 -13 -29 4 -9 -1 -20 -11 -26 -14 -8 -12
-9 8 -5 20 5 26 2 27 -12 1 -13 -12 -24 -44 -37 -41 -17 -44 -21 -29 -32 11
-8 13 -14 7 -19 -18 -10 -13 -25 12 -35 17 -7 18 -9 5 -9 -10 -1 -18 -6 -18
-12 0 -5 -5 -7 -10 -4 -6 4 -7 12 -4 18 5 8 3 8 -7 0 -7 -7 -24 -13 -38 -14
-15 0 -20 -3 -13 -6 6 -2 12 -10 12 -17 0 -9 9 -12 25 -8 40 7 29 -14 -20 -38
-25 -12 -45 -26 -45 -30 0 -17 18 -20 30 -5 7 8 17 15 22 15 5 0 -10 -18 -32
-40 -22 -22 -46 -40 -52 -40 -7 0 -4 -6 5 -12 15 -11 15 -16 3 -39 -7 -15 -13
-45 -13 -67 0 -29 -7 -50 -27 -76 -15 -20 -24 -36 -20 -36 4 0 -2 -10 -14 -22
-21 -23 -22 -26 -22 -52 0 -7 -10 -17 -22 -21 -15 -4 -19 -8 -10 -12 9 -3 3
-11 -17 -24 -17 -10 -31 -25 -31 -32 0 -8 -9 -22 -20 -32 -11 -10 -17 -22 -14
-27 3 -5 0 -15 -6 -23 -9 -11 -9 -15 -1 -15 20 0 12 -17 -15 -28 -14 -7 -23
-16 -20 -21 9 -14 -20 -32 -40 -25 -18 5 -18 5 -1 -6 24 -16 21 -29 -5 -24
-21 4 -22 4 -3 -5 27 -13 48 -13 40 -1 -3 6 -2 10 3 10 17 0 6 -65 -12 -68
-11 -2 -14 1 -10 13 6 13 3 14 -19 4 -14 -6 -28 -20 -30 -30 -3 -11 -14 -19
-26 -19 -12 0 -21 -5 -21 -10 0 -6 12 -8 26 -6 20 4 24 2 20 -10 -3 -8 -2 -12
3 -9 5 3 12 1 16 -5 4 -6 11 -8 16 -5 5 3 6 -1 3 -10 -5 -11 -10 -13 -17 -6
-5 5 -16 7 -24 4 -8 -3 -24 3 -36 14 -31 29 -68 47 -76 37 -9 -13 -39 -16 -46
-4 -3 5 -15 10 -25 10 -27 0 -36 20 -11 27 25 6 18 23 -10 23 -10 0 -19 5 -19
10 0 6 -7 10 -15 10 -8 0 -15 -4 -15 -10 0 -5 -8 -10 -18 -10 -10 0 -26 -6
-37 -13 -16 -13 -14 -15 26 -21 43 -7 43 -8 20 -20 -38 -21 -38 -57 0 -81 9
-5 28 -19 43 -29 15 -10 45 -20 66 -22 38 -2 46 3 40 31 -1 6 4 4 11 -2 18
-18 39 -16 39 3 0 12 7 14 31 9 17 -4 29 -3 26 1 -3 5 8 9 24 9 l30 1 -23 -18
-23 -19 40 6 c35 5 37 4 18 -6 -13 -7 -23 -16 -23 -21 0 -5 9 -4 19 2 11 5 26
10 33 9 7 0 -1 -7 -19 -15 -40 -17 -48 -30 -26 -43 10 -6 14 -11 8 -11 -5 0 1
-7 13 -16 12 -8 20 -20 17 -25 -3 -5 1 -6 9 -3 12 5 16 -1 17 -27 1 -19 1 -38
0 -43 -1 -4 4 -15 11 -23 6 -8 13 -22 15 -31 1 -10 4 -30 7 -46 2 -16 10 -32
16 -36 6 -4 12 -17 13 -28 1 -12 5 -22 10 -22 4 0 5 -6 1 -12 -11 -18 -12 -48
-2 -48 4 0 8 5 8 12 0 6 3 8 7 4 4 -4 -3 -16 -17 -26 -25 -19 -25 -20 -3 -20
18 0 21 -5 18 -29 -2 -16 0 -44 4 -63 5 -19 4 -44 0 -55 -6 -17 -5 -21 7 -16
16 6 19 -13 3 -22 -6 -4 -7 -14 -4 -24 4 -9 8 -22 9 -29 4 -25 21 -12 27 20 4
18 7 28 8 22 0 -6 13 -16 27 -22 14 -7 23 -16 19 -21 -3 -5 3 -16 13 -23 11
-7 22 -23 26 -35 4 -14 15 -23 27 -23 16 0 19 -5 14 -20 -5 -14 -2 -20 10 -20
12 0 15 -6 10 -20 -5 -16 -2 -20 17 -21 13 0 18 -3 11 -5 -8 -4 -6 -11 7 -24
11 -11 17 -26 14 -33 -3 -8 2 -17 11 -21 9 -3 13 -10 10 -16 -3 -5 5 -15 19
-21 14 -7 23 -16 19 -22 -3 -5 1 -13 8 -18 10 -6 11 -9 2 -9 -7 0 -13 -5 -13
-10 0 -6 10 -9 23 -7 12 2 16 2 9 0 -8 -3 -11 -17 -8 -41 2 -20 -1 -43 -6 -49
-6 -7 -7 -13 -2 -13 5 0 3 -4 -4 -8 -7 -5 -14 -18 -17 -30 -2 -12 -7 -27 -10
-32 -3 -6 -2 -10 4 -10 5 0 15 8 21 18 10 15 10 15 8 -3 -2 -15 -15 -23 -48
-31 l-45 -11 33 -7 c32 -8 45 -37 22 -51 -5 -3 -10 -10 -10 -15 0 -13 29 -1
74 31 22 16 42 26 45 23 3 -3 -2 -10 -11 -15 -9 -5 -23 -15 -30 -22 -7 -7 -27
-22 -45 -32 -27 -16 -30 -20 -17 -30 14 -10 14 -12 0 -24 -11 -9 -16 -10 -16
-2 0 6 5 11 12 11 6 0 8 3 5 6 -4 4 -12 2 -19 -3 -7 -5 -21 -13 -31 -16 -15
-6 -16 -4 -7 13 6 11 15 20 20 20 6 0 10 5 10 10 0 7 -6 7 -19 0 -26 -14 -29
-13 -27 8 1 12 -7 17 -24 18 -34 1 -50 -6 -50 -21 0 -7 -14 -18 -31 -25 -18
-8 -35 -24 -40 -40 -9 -23 -57 -54 -84 -53 -6 0 -12 -11 -13 -25 -1 -14 -9
-34 -19 -44 -9 -10 -12 -18 -7 -18 11 0 -28 -28 -40 -28 -10 0 -26 -22 -26
-36 0 -4 8 -5 18 -2 9 3 4 -5 -13 -20 -28 -26 -28 -26 -5 -19 40 12 45 11 42
-7 -2 -14 4 -18 25 -19 l28 -1 -27 -12 c-32 -14 -84 -74 -54 -63 23 9 88 -2
81 -14 -9 -13 36 -36 84 -44 24 -4 58 -13 75 -20 l31 -14 -25 -10 c-21 -8 -22
-10 -5 -10 17 -1 16 -4 -10 -26 -16 -13 -26 -24 -21 -25 4 0 25 14 46 30 44
35 52 36 71 13 12 -15 12 -16 -5 -10 -16 6 -17 5 -6 -8 7 -8 17 -12 24 -8 6 3
3 -3 -6 -14 -29 -33 -20 -39 12 -8 46 44 36 16 -17 -45 l-47 -55 52 49 c56 54
61 54 105 -8 17 -26 18 -28 3 -16 -18 14 -18 13 -11 -10 4 -14 14 -32 21 -41
8 -9 12 -23 8 -32 -4 -13 -11 -14 -31 -6 -14 5 -28 7 -31 4 -3 -3 -1 -5 4 -5
6 0 19 -6 30 -14 18 -14 17 -15 -14 -14 -18 1 -35 5 -38 10 -7 11 -54 10 -54
-1 0 -5 9 -11 21 -14 12 -3 18 -10 15 -16 -4 -6 -13 -8 -21 -4 -8 3 -15 0 -15
-5 0 -6 22 -23 50 -38 27 -15 47 -31 44 -36 -3 -4 8 -14 24 -21 17 -7 28 -18
27 -28 -2 -12 3 -15 19 -12 17 4 18 3 6 -6 -19 -13 -15 -16 44 -33 28 -8 55
-23 60 -33 6 -10 20 -27 30 -38 15 -15 16 -22 7 -25 -7 -2 4 -12 25 -22 22
-10 33 -19 27 -19 -7 -1 -13 -6 -13 -11 0 -6 11 -8 28 -4 l27 7 -25 -28 c-25
-28 -25 -28 -2 -22 12 3 22 1 22 -4 0 -5 16 -9 35 -9 39 0 43 -7 18 -26 -25
-17 -10 -28 19 -13 23 12 23 12 4 -10 -18 -20 -18 -21 -1 -21 14 0 15 -3 5
-15 -15 -18 -7 -19 21 -4 11 5 17 14 14 20 -4 5 1 9 9 9 23 0 19 -25 -6 -44
-23 -16 -23 -16 11 -10 28 5 33 4 28 -9 -3 -8 0 -18 8 -21 7 -2 16 2 19 10 9
25 25 15 20 -13 -3 -15 -7 -30 -10 -35 -3 -4 2 -5 10 -2 9 3 17 -2 21 -16 5
-15 12 -19 26 -15 15 5 17 3 12 -11 -5 -13 -3 -15 7 -9 10 6 12 0 7 -28 -4
-28 -2 -35 8 -31 8 3 20 -4 27 -15 18 -29 32 -26 24 4 -8 32 7 32 24 -1 l14
-25 125 6 c282 12 305 15 323 37 16 18 19 18 24 4 6 -15 8 -15 21 1 13 17 14
16 8 -4 -6 -21 -3 -23 27 -23 29 0 36 5 53 41 10 23 21 36 23 30 2 -7 -4 -23
-13 -37 -19 -29 -13 -43 10 -24 11 9 15 9 15 1 0 -7 10 -11 22 -9 16 2 26 14
34 43 8 28 14 35 18 24 4 -10 17 -15 32 -13 18 2 24 -2 24 -17 0 -12 4 -17 11
-13 7 4 9 21 5 44 -4 28 -2 39 9 44 22 8 29 -34 11 -69 -18 -34 -3 -64 15 -32
14 24 39 22 39 -4 0 -11 5 -17 10 -14 6 3 10 15 10 26 0 11 5 17 10 14 6 -4 8
-15 5 -26 -4 -12 -2 -19 7 -19 8 0 15 13 16 33 1 21 -1 28 -7 18 -6 -9 -11
-10 -15 -2 -4 6 -11 9 -16 6 -14 -9 -34 65 -21 78 7 7 11 7 11 1 0 -6 7 -19
15 -30 13 -16 14 -16 9 -1 -9 25 13 21 41 -8 17 -16 25 -20 25 -10 0 18 1 18
34 6 16 -7 26 -20 29 -38 3 -19 4 -14 6 17 l1 44 29 -32 c38 -41 57 -42 36 -1
-15 29 -15 32 2 44 13 10 20 10 25 2 4 -7 3 -14 -2 -15 -6 -2 -7 -8 -4 -13 3
-6 14 0 24 11 15 17 22 19 39 11 27 -15 31 -14 24 6 -7 17 -5 17 21 0 27 -18
27 -18 16 2 -11 22 -4 27 20 11 9 -5 19 -5 27 2 7 5 20 8 28 4 8 -3 15 -1 15
5 0 6 5 7 11 4 5 -4 20 -8 32 -9 12 -2 32 -6 43 -10 18 -5 21 -3 19 18 -3 25
-3 25 23 8 25 -16 26 -16 19 2 -5 12 -3 23 5 28 9 5 4 8 -14 8 -18 0 -40 13
-64 36 -29 30 -38 34 -46 23 -8 -11 -11 -11 -15 -1 -3 9 -9 10 -18 2 -9 -8
-14 -3 -19 21 -3 17 -10 28 -16 24 -6 -4 -10 5 -10 21 0 21 -3 24 -13 15 -16
-13 -27 -5 -27 20 0 9 -5 19 -11 21 -18 6 6 44 31 51 16 4 20 2 16 -9 -8 -22
5 -17 37 14 16 15 27 21 25 13 -2 -7 3 -16 11 -19 9 -3 11 0 6 7 -4 7 13 3 36
-9 l44 -21 -30 25 -30 26 40 34 c33 29 41 32 48 20 7 -12 12 -13 23 -3 8 6 14
19 15 28 0 12 2 12 6 3 4 -10 11 -5 24 15 10 15 19 23 19 17 0 -6 11 -11 24
-11 14 0 23 5 22 14 0 9 7 20 16 26 15 10 21 8 33 -11 20 -28 40 -30 25 -3
-17 33 -12 46 11 25 21 -19 22 -19 15 4 -7 22 7 31 19 12 9 -15 28 -12 22 3
-4 10 2 13 19 9 15 -3 26 1 30 11 3 9 12 13 19 11 7 -3 16 4 20 15 3 12 11 19
16 16 5 -4 9 -1 9 5 0 6 5 8 10 5 6 -3 10 -1 10 4 0 6 7 11 16 11 8 0 13 4 10
9 -3 5 1 11 8 14 8 3 17 1 20 -6 3 -9 5 -9 5 1 1 6 8 12 16 12 18 0 20 -16 3
-24 -7 -3 -3 -3 10 0 26 6 78 51 69 60 -3 3 -16 -1 -29 -10 -12 -9 -29 -16
-38 -15 -10 0 -11 2 -2 6 6 2 12 12 12 20 0 9 6 13 15 10 8 -4 17 -2 20 2 2 5
-5 12 -18 15 -22 6 -22 7 -2 18 11 7 30 13 43 14 12 2 36 16 52 33 17 16 39
32 49 36 11 3 22 13 25 22 6 14 4 14 -10 2 -24 -20 -51 -21 -58 -2 -4 9 -3 19
2 22 5 3 12 16 16 28 6 19 11 21 27 13 11 -6 19 -7 19 -2 0 18 39 21 43 3 2
-9 3 10 2 41 -2 51 -1 56 16 53 11 -2 17 0 13 6 -3 6 2 19 11 29 9 10 14 24
10 29 -3 6 -2 11 3 11 9 0 36 51 68 125 23 54 26 65 28 103 0 17 4 32 8 32 5
0 7 3 7 8 -1 4 0 9 1 12 11 29 3 67 -20 88 -24 22 -24 23 -2 12 36 -18 38 -4
3 15 -31 15 -44 32 -18 22 8 -3 20 -2 27 3 9 6 5 12 -16 25 -16 9 -21 14 -12
11 10 -3 20 -1 24 5 3 5 15 7 27 3 21 -6 21 -6 -2 15 -21 18 -22 21 -6 21 17
0 17 1 -1 22 -12 13 -13 18 -4 13 11 -6 10 -3 -3 12 -9 11 -14 22 -11 26 3 3
-10 9 -30 12 -20 4 -36 11 -36 16 0 12 7 11 31 -1 23 -13 26 2 3 24 -12 12
-12 16 -2 16 7 0 -2 10 -19 21 -18 12 -31 25 -28 30 9 13 -45 68 -61 62 -8 -3
-14 0 -14 6 0 6 6 11 14 11 8 0 17 4 20 9 3 4 -7 7 -21 5 -29 -3 -68 31 -56
49 3 5 1 7 -4 4 -6 -4 -17 1 -24 10 -11 13 -11 17 -1 20 8 3 5 11 -10 24 -17
14 -18 17 -5 13 26 -9 20 6 -15 38 -22 19 -27 28 -15 28 9 0 19 -4 22 -10 3
-5 14 -10 23 -10 12 0 11 4 -7 17 -22 15 -23 17 -7 29 12 8 27 10 49 3 34 -10
60 -29 38 -29 -7 0 -9 -4 -6 -10 3 -5 11 -10 16 -10 6 0 7 5 4 10 -3 6 1 13
10 17 10 3 20 0 25 -7 6 -10 12 -10 31 0 l23 13 -27 23 c-22 18 -23 23 -10 26
15 3 15 4 0 20 -23 23 -21 28 8 28 16 0 25 6 25 15 0 8 5 15 11 15 5 0 7 5 4
10 -3 6 -1 10 4 10 6 0 11 7 11 15 0 8 -9 15 -20 15 -11 0 -20 4 -20 9 0 5 6
9 13 8 6 0 23 1 37 2 23 2 23 3 5 11 -11 4 -30 6 -42 3 -27 -6 -32 13 -5 20
12 3 9 5 -8 6 l-25 2 25 14 25 15 -26 -6 c-15 -3 -30 -1 -33 5 -4 7 1 11 13
11 12 0 21 5 21 11 0 6 9 9 20 6 11 -3 17 -1 14 4 -3 5 2 12 11 15 14 6 14 8
-2 19 -15 11 -15 13 6 20 12 4 21 9 18 11 -2 3 -16 0 -30 -5 -20 -8 -27 -7
-31 5 -9 23 -8 24 11 17 11 -4 14 -3 9 5 -4 7 -1 12 9 12 9 0 13 -4 10 -10 -3
-5 1 -10 9 -10 9 0 16 4 16 8 0 5 10 14 23 21 20 11 5 8 -26 -4 -8 -3 -25 4
-38 15 -22 19 -22 20 -2 11 31 -16 56 -14 50 3 -3 8 2 16 15 19 11 3 17 10 13
16 -9 16 -41 13 -55 -4 -16 -19 -31 -20 -24 -1 6 16 49 37 66 32 7 -1 10 -1 5
1 -4 3 -5 9 -1 14 3 5 -2 9 -10 9 -8 0 -18 4 -21 10 -4 6 12 9 39 8 25 -1 51
3 58 10 20 20 0 27 -22 7 -18 -17 -20 -17 -20 -1 0 10 15 23 36 32 20 8 34 18
30 21 -3 3 -22 -2 -41 -12 -42 -19 -52 -16 -33 14 7 12 23 21 38 21 14 0 30 4
35 8 13 9 14 62 1 62 -5 0 -6 3 -2 8 4 4 13 7 19 7 12 0 12 40 3 183 -2 37 1
58 11 68 8 8 10 14 5 14 -6 0 -13 7 -16 16 -4 10 -2 13 6 8 12 -8 11 -6 -29
59 -13 20 -19 37 -15 37 5 0 -2 22 -16 50 -13 28 -28 50 -33 50 -4 0 -17 9
-28 21 -11 12 -24 18 -30 14 -6 -3 -11 -1 -11 4 0 6 -7 11 -15 11 -8 0 -15 6
-15 13 0 18 -49 64 -83 76 -16 6 -25 15 -22 21 3 6 -4 10 -16 10 -12 0 -19 3
-16 7 9 8 -12 33 -28 33 -6 0 -17 -11 -23 -24 -13 -30 -56 -40 -157 -39 -38 0
-64 -2 -57 -4 12 -5 17 -33 6 -33 -4 0 -12 7 -18 15 -16 22 -59 8 -53 -17 7
-26 -15 -18 -29 11 -9 18 -13 19 -17 7 -4 -9 -11 -16 -17 -16 -7 0 2 14 19 31
17 17 31 34 31 39 0 5 3 17 7 27 6 16 4 16 -17 -2 -16 -14 -22 -16 -18 -5 2 8
28 23 56 34 29 10 52 23 52 28 0 5 -4 6 -10 3 -5 -3 -10 -1 -10 4 0 6 5 11 12
11 6 0 8 3 5 7 -4 3 -2 12 4 20 9 10 5 10 -17 -2 -32 -16 -61 -3 -34 16 11 7
2 9 -32 7 -27 -2 -48 -2 -48 0 0 2 4 12 10 22 11 21 -8 33 -37 24 -10 -4 -5 5
12 20 17 14 36 25 43 26 21 0 13 20 -8 20 -11 0 -20 5 -20 10 0 6 -8 10 -17
10 -15 0 -16 2 -3 10 12 7 6 13 -27 27 -43 18 -56 33 -28 33 24 0 -17 41 -43
43 -20 1 -20 2 -5 19 20 23 3 24 -37 3 -17 -9 -30 -13 -30 -10 0 2 17 13 38
24 l37 20 -32 1 c-17 0 -35 5 -38 10 -4 7 -16 3 -33 -8 -47 -33 -59 -33 -55
-4 l3 27 -9 -25 c-4 -14 -28 -46 -53 -72 -29 -30 -49 -62 -58 -92 -13 -46 -23
-57 -34 -33 -4 6 -4 2 -2 -10 2 -13 0 -26 -5 -29 -5 -3 -9 -1 -9 5 0 17 -29 1
-35 -20 -6 -17 -9 -18 -22 -7 -9 7 -19 12 -22 11 -3 -1 -5 4 -3 12 1 7 -2 16
-8 20 -5 3 -10 15 -10 26 0 11 -4 18 -9 14 -5 -3 -12 4 -16 15 -3 11 -11 20
-16 20 -6 0 -1 -16 11 -35 12 -19 19 -35 15 -35 -3 0 -1 -9 5 -21 11 -19 10
-20 -11 -9 -21 12 -21 11 4 -35 31 -55 32 -62 12 -62 -8 0 -13 2 -10 5 8 8
-23 59 -40 66 -11 4 -17 -2 -22 -25 -5 -29 -6 -29 -25 -12 -18 17 -19 16 -8
-11 19 -51 -6 -62 -32 -15 -10 17 -22 28 -27 25 -5 -3 -12 1 -15 10 -4 9 -9
14 -12 11 -3 -3 -1 -15 6 -26 11 -21 -3 -31 -15 -10 -5 6 -12 4 -21 -8 -13
-17 -13 -17 -14 3 0 11 -6 29 -14 39 -12 16 -12 12 -6 -31 4 -27 4 -50 -1 -52
-4 -2 -6 -11 -3 -20 5 -15 4 -15 -6 1 -6 9 -9 25 -6 35 3 9 2 31 -3 47 -7 24
-9 26 -10 8 -2 -48 -41 -24 -41 25 0 28 -26 48 -34 27 -3 -9 -2 -14 2 -11 5 3
9 -14 10 -37 0 -41 0 -42 -10 -12 -6 17 -15 36 -21 43 -8 10 -7 16 2 22 11 6
11 15 1 44 -13 40 -24 49 -14 12 3 -13 1 -27 -5 -30 -6 -4 -8 -20 -4 -37 6
-30 5 -30 -16 -17 -12 7 -27 25 -34 41 -12 27 -27 36 -27 17 0 -5 -11 0 -25
12 -18 16 -25 32 -25 59 0 24 -5 39 -15 43 -8 3 -15 1 -15 -4 0 -6 5 -10 10
-10 6 0 10 -15 10 -32 0 -18 7 -46 15 -62 8 -15 14 -42 14 -60 l-1 -31 -8 30
c-5 21 -8 24 -9 10 -2 -19 -2 -19 -12 -2 -6 9 -15 14 -21 11 -7 -4 -8 -2 -4 5
9 15 -2 71 -15 71 -5 0 -9 -12 -10 -27 l-1 -28 -8 25 c-7 22 -8 22 -9 4 -2
-33 -14 -37 -34 -12 l-18 23 2 -30 c3 -78 -12 -60 -26 30 -4 28 -10 44 -12 38
-7 -19 -23 -16 -23 5 0 36 -17 -9 -18 -50 -1 -23 -8 -49 -16 -57 -8 -9 -16
-29 -19 -46 l-4 -30 -2 29 c-1 24 -3 27 -16 16 -8 -7 -15 -19 -15 -28 0 -8 -3
-13 -6 -9 -10 9 5 43 31 71 27 29 35 58 9 32 -8 -9 -20 -14 -25 -11 -5 4 -9
-5 -9 -19 0 -14 -4 -26 -10 -26 -13 0 -13 36 1 62 9 17 13 18 20 7 7 -11 9 -9
9 7 0 12 7 24 15 28 8 3 14 13 14 23 -1 17 -2 17 -6 0 -3 -11 -11 -16 -19 -13
-7 3 -18 -3 -23 -12 -6 -9 -11 -12 -11 -7 -1 22 -20 -22 -21 -50 -1 -18 -3
-23 -6 -12 -4 14 -8 16 -19 6 -8 -6 -14 -21 -14 -32 0 -11 -3 -18 -6 -15 -11
12 8 79 21 74 13 -5 32 60 21 72 -3 3 -6 -3 -6 -14 0 -13 -3 -15 -8 -7 -5 9
-14 -5 -26 -37 -21 -58 -37 -66 -29 -13 4 26 3 34 -6 29 -6 -4 -9 -11 -6 -16
3 -5 1 -11 -5 -15 -5 -3 -10 1 -10 9 0 8 -4 17 -9 21 -6 3 -9 -5 -9 -17 1 -13
1 -39 0 -58 -2 -27 -5 -32 -12 -20 -6 8 -8 33 -5 55 4 29 2 35 -4 20 -5 -11
-10 -39 -10 -62 -1 -23 -6 -45 -12 -48 -5 -4 -15 -19 -21 -33 -7 -18 -12 -22
-16 -13 -3 10 -9 5 -18 -15 -12 -26 -13 -26 -8 -4 5 24 4 24 -10 6 -9 -11 -16
-28 -16 -37 0 -10 -4 -21 -10 -24 -14 -9 -13 5 5 55 8 24 14 45 11 47 -9 10
-32 -47 -35 -87 -2 -25 -9 -56 -17 -70 -16 -31 -18 -8 -2 36 9 25 9 39 0 58
-13 29 -5 67 9 44 10 -15 12 -3 9 46 -1 19 2 26 10 21 9 -6 9 -2 1 14 -7 11
-16 21 -20 21 -5 0 -12 17 -16 38 -9 57 -23 72 -20 21 2 -24 4 -48 5 -54 2 -5
-1 -25 -5 -43 -6 -24 -10 -30 -16 -20 -6 9 -9 2 -9 -19 0 -18 -5 -33 -10 -33
-6 0 -9 3 -9 8 1 4 1 21 0 37 l-2 30 -13 -30 c-7 -16 -12 -32 -10 -36 9 -16
12 -89 3 -84 -5 4 -9 21 -9 40 0 36 -16 57 -22 28 -3 -14 -7 -10 -18 14 -15
33 -45 56 -33 26 4 -11 2 -14 -5 -9 -8 4 -12 0 -12 -11 0 -20 -2 -18 -47 64
-26 48 -40 59 -76 61 -46 3 -54 14 -22 28 l30 12 -25 10 c-63 24 -70 24 -70 3
0 -11 -5 -23 -12 -27 -7 -4 -8 -3 -4 4 5 8 2 10 -8 6 -9 -3 -13 -10 -11 -15 3
-5 -7 -12 -22 -15 -24 -7 -25 -8 -8 -14 18 -7 17 -8 -7 -15 -16 -4 -28 -11
-28 -15 0 -5 -8 -11 -19 -15 -12 -4 -17 -13 -15 -30 2 -21 -2 -25 -23 -25 -21
0 -23 -3 -14 -14 15 -17 2 -27 -27 -20 -13 4 -19 11 -15 21 5 13 0 15 -33 9
l-39 -7 32 21 c20 13 30 27 26 36 -3 8 1 14 10 14 9 0 19 5 23 12 5 8 0 9 -14
6 -12 -4 -20 -2 -16 3 3 5 17 10 32 10 20 1 22 3 7 6 -11 2 -26 17 -33 32 -9
20 -20 29 -35 28 -12 0 -35 3 -52 7 -21 5 -26 5 -16 -2 8 -6 11 -17 7 -27 -4
-13 -2 -16 9 -11 8 3 15 1 15 -4 0 -6 8 -10 18 -10 11 -1 6 -6 -13 -15 l-30
-14 30 5 30 5 -28 -16 c-24 -14 -29 -14 -42 -2 -11 11 -11 17 -2 27 10 10 6
12 -15 8 -22 -4 -28 -1 -28 13 0 14 7 19 28 19 24 1 25 2 10 13 -11 9 -14 18
-8 27 4 7 6 19 3 27 -3 9 3 13 19 13 17 0 24 6 24 20 0 21 -11 27 -20 11 -3
-5 -15 -11 -27 -14 -17 -5 -15 0 11 23 17 15 39 26 48 23 9 -2 26 3 37 12 20
16 20 16 -1 10 -12 -3 -34 1 -50 10 -16 8 -23 15 -16 15 6 0 12 11 12 25 0 14
-4 25 -10 25 -5 0 -10 5 -10 10 0 6 7 10 16 10 8 0 12 5 9 10 -9 14 -27 12
-49 -5z m2113 -176 c-16 -10 -23 -4 -14 10 3 6 11 8 17 5 6 -4 5 -9 -3 -15z
m-36 -44 c-3 -9 -8 -14 -10 -11 -3 3 -2 9 2 15 9 16 15 13 8 -4z m-1998 -45
c3 -5 2 -10 -4 -10 -5 0 -13 5 -16 10 -3 6 -2 10 4 10 5 0 13 -4 16 -10z
m1097 -42 c-7 -7 -12 -8 -12 -2 0 14 12 26 19 19 2 -3 -1 -11 -7 -17z m-1228
-27 c18 -7 18 -8 3 -14 -10 -4 -17 -1 -17 6 0 8 -4 7 -10 -3 -5 -8 -12 -11
-15 -8 -8 8 3 28 13 27 4 0 16 -4 26 -8z m1364 -32 c-3 -8 -7 -3 -11 10 -4 17
-3 21 5 13 5 -5 8 -16 6 -23z m-1286 10 c3 -9 10 -9 27 0 12 7 25 10 28 7 8
-7 -47 -27 -65 -24 -20 4 -28 28 -9 28 9 0 17 -5 19 -11z m720 -19 c-2 -16 -6
-30 -8 -30 -2 0 -4 14 -4 30 0 17 4 30 8 30 5 0 7 -13 4 -30z m273 -1 c-9 -17
-19 -29 -22 -26 -5 5 25 57 33 57 3 0 -3 -14 -11 -31z m885 1 c5 0 10 8 13 18
2 9 4 1 3 -19 l0 -37 -18 23 c-10 13 -17 29 -17 37 1 7 3 5 6 -4 2 -10 8 -18
13 -18z m-1974 -8 c-8 -9 -19 -13 -22 -9 -10 9 16 38 28 31 6 -4 4 -13 -6 -22z
m2057 8 c-3 -11 -9 -17 -15 -14 -5 3 -4 12 3 20 16 19 18 18 12 -6z m-1024
-34 c-9 -8 -10 -7 -5 7 3 10 7 24 7 30 1 7 3 4 6 -7 3 -10 -1 -23 -8 -30z
m499 9 c-3 -3 -9 2 -12 12 -6 14 -5 15 5 6 7 -7 10 -15 7 -18z m-523 -48 c-15
-21 -15 -21 -15 11 0 40 -16 42 -23 2 -4 -16 -11 -30 -17 -30 -13 0 -13 17 0
25 6 3 10 15 10 27 0 15 5 19 20 15 11 -3 20 0 21 6 0 7 4 2 10 -11 6 -17 5
-30 -6 -45z m415 28 c0 -5 -5 -3 -10 5 -5 8 -10 20 -10 25 0 6 5 3 10 -5 5 -8
10 -19 10 -25z m143 22 c3 -8 1 -20 -4 -28 -6 -10 -9 -7 -9 14 0 29 5 35 13
14z m345 -33 c-4 -3 -12 5 -18 18 -12 22 -12 22 6 6 10 -10 15 -20 12 -24z
m-1937 7 c-10 -6 -9 -12 5 -26 17 -17 17 -17 -4 -11 -12 4 -22 3 -22 -2 0 -5
-8 -12 -17 -16 -10 -3 -24 -9 -30 -12 -26 -12 -12 12 17 28 17 9 30 24 30 32
0 8 6 16 13 19 17 6 24 -3 8 -12z m59 10 c0 -5 -7 -11 -15 -15 -15 -5 -20 5
-8 17 9 10 23 9 23 -2z m2018 -26 c-9 -9 -30 14 -23 25 6 9 10 8 17 -4 6 -10
8 -19 6 -21z m-682 -12 c-11 -11 -19 6 -11 24 8 17 8 17 12 0 3 -10 2 -21 -1
-24z m154 2 c0 -5 -5 -3 -10 5 -5 8 -10 20 -10 25 0 6 5 3 10 -5 5 -8 10 -19
10 -25z m118 10 c-3 -3 -9 2 -12 12 -6 14 -5 15 5 6 7 -7 10 -15 7 -18z m242
-1 c0 -8 5 -14 12 -14 6 0 8 -3 4 -7 -4 -5 -14 1 -22 11 -16 23 -19 40 -4 31
6 -3 10 -13 10 -21z m-1580 6 c-19 -13 -30 -13 -30 0 0 6 10 10 23 10 18 0 19
-2 7 -10z m-223 -27 c-3 -3 -11 -2 -17 2 -9 6 -9 10 1 16 14 8 27 -7 16 -18z
m-47 7 c0 -5 -4 -10 -10 -10 -5 0 -10 5 -10 10 0 6 5 10 10 10 6 0 10 -4 10
-10z m145 0 c4 -6 -7 -10 -27 -9 -27 0 -30 2 -13 9 27 12 33 12 40 0z m495 -9
c0 -11 -4 -22 -9 -25 -5 -3 -8 6 -8 19 0 14 3 25 8 25 5 0 9 -9 9 -19z m103
12 c-7 -2 -13 -14 -14 -26 0 -12 -3 -16 -6 -9 -7 18 4 42 19 41 10 0 10 -2 1
-6z m151 -19 c3 -8 2 -12 -4 -9 -6 3 -10 10 -10 16 0 14 7 11 14 -7z m860 0
c3 -8 2 -12 -4 -9 -6 3 -10 10 -10 16 0 14 7 11 14 -7z m782 7 c-3 -5 -16 -11
-28 -14 -22 -6 -22 -5 -4 8 22 17 40 20 32 6z m-1445 -44 c-8 -8 -11 -5 -11 9
0 27 14 41 18 19 2 -9 -1 -22 -7 -28z m-1151 30 c0 -2 -12 -14 -27 -28 -20
-18 -24 -19 -13 -4 18 24 40 42 40 32z m830 -7 c0 -5 -2 -10 -4 -10 -3 0 -8 5
-11 10 -3 6 -1 10 4 10 6 0 11 -4 11 -10z m299 -50 c1 -13 0 -13 -9 0 -5 8 -9
26 -9 40 l1 25 8 -25 c4 -14 8 -32 9 -40z m521 38 c0 -19 -2 -20 -10 -8 -13
19 -13 30 0 30 6 0 10 -10 10 -22z m-1454 -3 c10 -8 14 -15 7 -15 -6 0 -15 5
-18 10 -3 6 -19 10 -36 10 -16 0 -29 -4 -29 -10 0 -5 15 -10 33 -10 26 -1 29
-2 15 -11 -10 -5 -18 -17 -18 -25 0 -8 5 -12 10 -9 6 3 10 2 10 -4 0 -5 12
-12 28 -14 26 -4 26 -4 5 -12 -13 -4 -23 -11 -23 -16 0 -5 -12 -10 -27 -10
-28 -2 -28 -2 -3 -6 14 -2 32 -13 39 -25 12 -19 11 -20 -6 -12 -10 4 -42 7
-70 6 -31 -1 -53 2 -53 8 0 5 -4 10 -9 10 -5 0 -8 -8 -7 -17 1 -12 -5 -17 -17
-15 -10 2 -26 -7 -36 -19 -9 -12 -35 -25 -57 -28 -21 -4 -38 -12 -37 -19 2 -6
-7 -17 -20 -23 -12 -7 -26 -17 -32 -23 -5 -6 -9 -9 -8 -7 2 2 -3 11 -9 19 -10
12 -8 18 11 33 14 11 21 25 17 34 -4 10 1 15 15 15 11 0 17 5 14 10 -3 6 -1
10 5 10 6 0 9 4 5 10 -3 5 9 24 28 43 18 19 32 38 30 43 -3 9 13 19 77 48 19
9 42 20 50 25 23 15 94 13 116 -4z m-156 1 c0 -2 -7 -7 -16 -10 -8 -3 -12 -2
-9 4 6 10 25 14 25 6z m873 -16 c-3 -12 -8 -19 -11 -16 -5 6 5 36 12 36 2 0 2
-9 -1 -20z m1547 16 c0 -3 -4 -8 -10 -11 -5 -3 -10 -1 -10 4 0 6 5 11 10 11 6
0 10 -2 10 -4z m-1001 -56 c0 -9 -4 -8 -9 5 -5 11 -9 27 -9 35 0 9 4 8 9 -5 5
-11 9 -27 9 -35z m248 35 c4 -4 3 -5 -4 -2 -6 4 -13 2 -15 -5 -3 -8 -6 -6 -10
4 -7 17 15 19 29 3z m774 -19 c-22 -23 -32 -114 -11 -101 6 3 10 23 10 44 0
24 7 44 18 54 17 15 18 15 19 -3 1 -11 -2 -20 -8 -20 -5 0 -9 -18 -9 -40 0
-22 5 -40 10 -40 6 0 10 -7 10 -15 0 -10 -10 -15 -27 -15 -21 0 -24 -3 -15
-12 14 -14 -12 -48 -37 -48 -13 0 -13 -2 -2 -9 11 -7 9 -10 -8 -16 -14 -4 -20
-12 -17 -22 7 -17 -10 -53 -25 -53 -6 0 -8 4 -4 9 3 5 0 13 -6 17 -9 5 -10 -1
-6 -23 5 -24 0 -34 -24 -57 -16 -15 -26 -21 -23 -12 4 10 1 16 -7 16 -9 0 -10
3 -4 8 13 9 19 35 6 28 -5 -4 -12 3 -16 14 -3 11 -14 20 -23 21 -15 0 -15 1 1
8 10 4 18 10 18 14 -1 4 -1 19 -1 35 0 21 2 24 10 12 5 -8 10 -32 10 -52 0
-21 3 -38 8 -38 9 0 7 68 -3 92 -4 9 -4 21 -1 27 4 5 2 12 -4 16 -12 8 10 45
27 45 12 0 17 18 14 50 -2 13 -1 13 8 0 8 -11 11 -12 11 -2 0 10 4 10 16 -2 8
-9 21 -16 29 -16 16 0 28 28 18 43 -15 24 -9 53 12 55 11 0 21 6 23 12 2 5 8
7 14 4 5 -4 1 -15 -11 -28z m-1690 -9 c-16 -16 -26 0 -10 19 9 11 15 12 17 4
2 -6 -1 -17 -7 -23z m799 -2 c0 -5 -5 -3 -10 5 -5 8 -10 20 -10 25 0 6 5 3 10
-5 5 -8 10 -19 10 -25z m-63 -17 c-3 -8 -6 -5 -6 6 -1 11 2 17 5 13 3 -3 4
-12 1 -19z m889 -3 c1 -14 -2 -25 -7 -25 -10 0 -12 33 -2 43 3 4 7 7 7 7 1 0
2 -11 2 -25z m211 -42 c-3 -3 -11 -2 -17 2 -9 6 -9 10 1 16 14 8 27 -7 16 -18z
m-1795 -15 c-7 -7 -12 -8 -12 -2 0 6 3 14 7 17 3 4 9 5 12 2 2 -3 -1 -11 -7
-17z m958 -43 c0 -5 -5 -3 -10 5 -5 8 -10 20 -10 25 0 6 5 3 10 -5 5 -8 10
-19 10 -25z m-1630 5 c0 -5 -5 -10 -11 -10 -5 0 -7 5 -4 10 3 6 8 10 11 10 2
0 4 -4 4 -10z m-63 -16 c-3 -3 -12 -4 -19 -1 -8 3 -5 6 6 6 11 1 17 -2 13 -5z
m171 -5 c-6 -4 -8 -14 -5 -23 6 -14 3 -15 -13 -6 -11 6 -26 8 -32 4 -7 -4 -8
-3 -4 4 4 7 3 12 -3 12 -5 0 -12 -4 -16 -10 -8 -14 -35 -1 -29 15 4 8 23 12
59 11 29 0 48 -4 43 -7z m2022 -9 c0 -5 -5 -10 -11 -10 -5 0 -7 5 -4 10 3 6 8
10 11 10 2 0 4 -4 4 -10z m-2230 -10 c22 -7 20 -8 -12 -7 -21 0 -40 -2 -44 -6
-4 -4 7 -7 24 -7 18 0 32 -4 32 -10 0 -11 -33 -13 -68 -4 l-22 6 21 19 c24 20
31 21 69 9z m265 -10 c3 -5 14 -10 23 -10 15 0 15 2 2 10 -13 8 -12 10 3 10 9
0 17 -7 17 -15 0 -8 4 -15 10 -15 5 0 7 8 4 18 -5 14 -3 14 10 -2 9 -11 16
-14 16 -7 0 7 5 9 10 6 6 -3 10 -11 10 -16 0 -6 -4 -8 -9 -5 -4 3 -16 0 -26
-8 -14 -10 -23 -10 -51 3 -18 8 -36 21 -38 28 -6 15 10 18 19 3z m2260 -12
c-11 -6 -29 -18 -40 -27 -12 -9 -8 -4 7 12 16 15 34 27 41 27 6 0 3 -6 -8 -12z
m112 -27 c45 -21 63 -45 63 -85 0 -41 -33 -66 -87 -66 -39 0 -52 5 -80 32 -44
43 -46 95 -5 120 35 22 57 22 109 -1z m-617 -33 c0 -6 -6 -5 -15 2 -8 7 -15
14 -15 16 0 2 7 1 15 -2 8 -4 15 -11 15 -16z m-2195 -10 c-19 -11 -30 -5 -21
11 4 6 14 7 22 4 15 -5 14 -7 -1 -15z m2610 -11 c-16 -26 -24 -160 -11 -214 4
-18 5 -33 3 -33 -9 0 -47 123 -47 150 0 24 52 120 65 120 3 0 -1 -10 -10 -23z
m-2635 -17 c0 -5 -2 -10 -4 -10 -2 0 -12 -3 -20 -6 -12 -5 -15 -2 -10 10 7 17
34 22 34 6z m559 -47 c63 -48 121 -135 121 -182 0 -15 -14 -54 -30 -87 -17
-32 -28 -50 -26 -39 17 69 21 107 16 162 -5 67 -21 91 -94 144 -21 16 -35 29
-31 29 4 0 24 -12 44 -27z m1871 7 c0 -5 -5 -10 -11 -10 -5 0 -7 5 -4 10 3 6
8 10 11 10 2 0 4 -4 4 -10z m-2460 -10 c0 -5 -5 -10 -11 -10 -5 0 -7 5 -4 10
3 6 8 10 11 10 2 0 4 -4 4 -10z m561 -13 c29 -20 34 -29 33 -61 -2 -52 -52
-95 -112 -96 -43 0 -96 25 -86 41 3 5 1 9 -4 9 -6 0 -13 7 -16 16 -3 8 -2 13
3 10 5 -3 12 1 15 10 3 8 2 12 -4 9 -6 -3 -10 -2 -10 4 0 10 22 19 67 27 15 3
31 10 34 16 4 6 11 8 17 4 6 -3 13 -2 17 4 3 5 -1 10 -9 10 -9 0 -16 5 -16 10
0 17 36 11 71 -13z m2620 -47 c5 0 9 5 9 11 0 12 29 38 43 39 4 0 4 -8 -2 -17
-5 -10 -5 -26 0 -40 5 -15 2 -41 -11 -80 -11 -32 -20 -66 -20 -75 0 -10 -3
-17 -7 -15 -5 1 -9 -2 -10 -6 -4 -13 -34 -40 -39 -34 -3 3 2 22 11 42 18 45
10 61 -14 25 -30 -45 -63 -80 -85 -91 -18 -9 -19 -8 -5 3 46 39 81 111 97 201
10 52 18 80 20 64 2 -15 8 -27 13 -27z m-658 11 c-9 -12 -22 -21 -27 -21 -5 0
1 11 14 25 28 30 39 26 13 -4z m-43 9 c0 -5 -4 -10 -10 -10 -5 0 -10 5 -10 10
0 6 5 10 10 10 6 0 10 -4 10 -10z m-1465 -39 c-3 -6 -11 -11 -16 -11 -5 0 -4
6 3 14 14 16 24 13 13 -3z m-1160 -1 c-3 -5 -12 -10 -18 -10 -7 0 -6 4 3 10
19 12 23 12 15 0z m331 -269 c15 -25 34 -55 43 -66 16 -20 16 -20 -7 0 -13 11
-40 41 -59 68 -19 26 -38 46 -40 43 -3 -3 2 -24 11 -47 17 -42 3 -53 -18 -13
-6 10 -15 22 -20 26 -13 9 -17 153 -6 182 8 21 8 21 18 -4 l10 -25 8 30 c7 26
10 17 21 -59 9 -60 22 -104 39 -135z m2269 179 c3 -5 1 -10 -4 -10 -6 0 -11 5
-11 10 0 6 2 10 4 10 3 0 8 -4 11 -10z m-58 -20 c11 -16 9 -20 -8 -25 -22 -7
-42 5 -21 12 26 10 11 22 -20 17 -20 -3 -28 -2 -21 3 23 16 58 13 70 -7z m643
3 c0 -5 -10 -19 -21 -33 l-21 -25 18 33 c18 32 24 38 24 25z m-3240 -7 c0 -2
-7 -7 -16 -10 -8 -3 -12 -2 -9 4 6 10 25 14 25 6z m2710 -16 l25 -8 -24 -1
c-21 -1 -22 -3 -10 -17 12 -15 11 -16 -11 -10 -19 5 -17 2 8 -11 17 -9 32 -21
32 -25 0 -5 3 -7 8 -5 4 3 13 -1 20 -9 11 -12 10 -14 -6 -14 -10 0 -23 5 -30
12 -7 7 -12 8 -12 2 0 -6 18 -19 39 -30 25 -12 35 -22 28 -26 -7 -5 -3 -8 12
-8 17 0 22 -4 17 -16 -3 -8 -2 -12 4 -9 6 3 10 1 10 -4 0 -6 8 -11 17 -11 13
0 14 -3 5 -12 -9 -9 -20 -8 -47 5 -44 21 -46 13 -3 -9 17 -9 40 -26 49 -38 15
-18 15 -22 3 -29 -9 -5 -21 -4 -30 3 -11 10 -14 10 -14 -2 0 -20 20 -37 36
-31 10 3 12 0 8 -10 -3 -8 -1 -18 5 -22 6 -3 11 -12 11 -18 0 -7 -12 0 -25 16
-13 15 -30 27 -38 27 -9 0 -13 11 -12 35 2 26 -2 35 -14 35 -9 0 -22 9 -28 20
-11 17 -10 18 5 13 12 -4 9 1 -8 18 -37 36 -66 57 -56 41 7 -11 4 -11 -13 0
-22 13 -30 35 -8 22 6 -4 3 3 -8 16 -19 23 -19 23 -1 16 19 -7 19 -6 1 14 -24
26 -45 26 -38 0 3 -13 0 -20 -8 -20 -21 0 -42 17 -45 35 -2 12 3 14 19 10 20
-6 21 -5 5 8 -22 18 -23 31 -2 23 25 -9 66 4 60 20 -6 16 22 17 64 4z m-2885
-30 c3 -5 -3 -10 -15 -10 -12 0 -18 5 -15 10 3 6 10 10 15 10 5 0 12 -4 15
-10z m1281 -45 c-9 -9 -16 -13 -16 -8 0 12 22 34 28 28 2 -2 -3 -11 -12 -20z
m1724 -11 c0 -2 -9 0 -20 6 -11 6 -20 13 -20 16 0 2 9 0 20 -6 11 -6 20 -13
20 -16z m-1760 2 c0 -3 -4 -8 -10 -11 -5 -3 -10 -1 -10 4 0 6 5 11 10 11 6 0
10 -2 10 -4z m52 -25 c-24 -39 -71 -77 -107 -85 -24 -5 -26 -4 -12 4 9 6 15
16 12 21 -4 5 -10 7 -15 4 -5 -3 -11 -1 -15 5 -4 6 9 10 32 10 28 0 34 -3 23
-10 -8 -5 -10 -10 -4 -10 6 0 17 6 23 14 9 11 9 15 -1 19 -18 6 2 26 32 32 13
2 28 9 34 15 17 17 17 11 -2 -19z m1988 -62 c0 -6 -4 -7 -10 -4 -5 3 -10 11
-10 16 0 6 5 7 10 4 6 -3 10 -11 10 -16z m-2060 -33 c0 -2 -7 -7 -16 -10 -8
-3 -12 -2 -9 4 6 10 25 14 25 6z m-50 -16 c0 -5 -4 -10 -10 -10 -5 0 -10 5
-10 10 0 6 5 10 10 10 6 0 10 -4 10 -10z m173 -17 c-7 -2 -19 -2 -25 0 -7 3
-2 5 12 5 14 0 19 -2 13 -5z m2272 -3 c3 -5 1 -10 -4 -10 -6 0 -11 5 -11 10 0
6 2 10 4 10 3 0 8 -4 11 -10z m-2435 -14 c0 -3 -4 -8 -10 -11 -5 -3 -10 -1
-10 4 0 6 5 11 10 11 6 0 10 -2 10 -4z m130 -6 c0 -5 -2 -10 -4 -10 -3 0 -8 5
-11 10 -3 6 -1 10 4 10 6 0 11 -4 11 -10z m2330 -10 c0 -5 -7 -10 -15 -10 -8
0 -15 5 -15 10 0 6 7 10 15 10 8 0 15 -4 15 -10z m-2870 -14 c0 -3 -4 -8 -10
-11 -5 -3 -10 -1 -10 4 0 6 5 11 10 11 6 0 10 -2 10 -4z m371 -10 c-7 -8 -26
-19 -43 -25 -30 -11 -31 -11 -14 8 10 11 28 22 40 24 11 2 23 5 25 6 2 0 -2
-5 -8 -13z m139 -47 c0 -5 -4 -9 -8 -9 -5 0 -9 7 -9 15 0 8 4 12 9 9 4 -3 8
-9 8 -15z m-56 5 c13 -5 12 -10 -10 -26 -14 -11 -28 -17 -32 -14 -3 4 0 11 8
16 8 6 11 10 7 10 -5 0 -5 5 -2 10 7 12 8 12 29 4z m1657 -11 c13 -15 12 -15
-8 -4 -24 12 -29 21 -14 21 5 0 15 -7 22 -17z m29 -33 c13 -8 12 -10 -3 -10
-10 0 -15 -4 -12 -10 3 -5 2 -10 -3 -10 -5 0 -12 9 -15 20 -6 22 8 26 33 10z
m158 -31 c-3 -8 -7 -3 -11 10 -4 17 -3 21 5 13 5 -5 8 -16 6 -23z m511 -16 c2
-2 -3 -3 -11 -3 -9 0 -19 7 -22 16 -6 15 -4 15 11 3 10 -7 20 -15 22 -16z
m-475 -19 c6 -15 4 -15 -11 -3 -10 7 -20 15 -22 16 -2 2 3 3 11 3 9 0 19 -7
22 -16z m-29 -12 c-3 -3 -11 0 -18 7 -9 10 -8 11 6 5 10 -3 15 -9 12 -12z
m-75 -43 c0 -4 -7 -6 -15 -3 -8 4 -15 10 -15 15 0 4 7 6 15 3 8 -4 15 -10 15
-15z m100 11 c0 -5 -2 -10 -4 -10 -3 0 -8 5 -11 10 -3 6 -1 10 4 10 6 0 11 -4
11 -10z m54 -53 c15 -19 26 -38 26 -43 0 -5 -5 -2 -10 6 -8 12 -12 13 -19 2
-7 -11 -11 -11 -23 2 -9 8 -18 13 -21 10 -3 -3 -8 0 -13 7 -5 8 -3 10 6 4 10
-6 12 -4 6 11 -6 15 -3 14 18 -5 15 -14 26 -19 26 -13 0 7 -3 12 -8 12 -4 0
-13 9 -20 20 -20 33 5 22 32 -13z m-187 17 c-3 -3 -12 -4 -19 -1 -8 3 -5 6 6
6 11 1 17 -2 13 -5z m534 -31 c13 -16 12 -17 -3 -4 -10 7 -18 15 -18 17 0 8 8
3 21 -13z m-1284 -55 c-12 -16 -23 -25 -25 -19 -2 5 -10 7 -19 4 -11 -4 -14
-2 -9 5 4 7 2 12 -3 12 -6 0 -11 5 -11 11 0 8 5 8 15 -1 18 -15 45 -6 45 14 0
9 6 13 15 10 12 -5 10 -11 -8 -36z m-91 -5 c-11 -11 -17 4 -9 23 7 18 8 18 11
1 2 -10 1 -21 -2 -24z m124 7 c0 -5 -5 -10 -11 -10 -5 0 -7 5 -4 10 3 6 8 10
11 10 2 0 4 -4 4 -10z m40 -10 c0 -5 -2 -10 -4 -10 -3 0 -8 5 -11 10 -3 6 -1
10 4 10 6 0 11 -4 11 -10z m459 -13 c0 -8 -2 -8 -6 1 -4 10 -8 10 -21 0 -15
-12 -16 -11 -3 4 14 19 32 15 30 -5z m-652 -14 c13 -26 2 -30 -21 -7 -19 19
-20 31 -3 31 7 0 18 -11 24 -24z m33 13 c0 -3 -4 -8 -10 -11 -5 -3 -10 -1 -10
4 0 6 5 11 10 11 6 0 10 -2 10 -4z m1316 -28 c-6 -10 -17 -20 -24 -23 -7 -3
-10 0 -7 6 4 5 1 16 -5 24 -10 12 -7 14 18 12 25 -2 27 -4 18 -19z m-1356 -85
c0 -2 -5 -2 -12 0 -18 3 -37 21 -32 29 4 6 44 -21 44 -29z m331 -16 c-10 -9
-11 -8 -5 6 3 10 9 15 12 12 3 -3 0 -11 -7 -18z m984 -1 c18 -13 18 -14 -8 -9
-15 3 -30 9 -33 14 -8 14 20 10 41 -5z m-80 -26 c10 -11 13 -20 7 -20 -6 0
-16 9 -22 20 -6 11 -9 20 -7 20 2 0 12 -9 22 -20z m135 0 c12 -8 11 -10 -7
-10 -13 0 -23 5 -23 10 0 13 11 13 30 0z m97 -38 c-10 -2 -24 2 -32 8 -8 6
-18 9 -23 6 -5 -3 -9 1 -9 8 0 10 9 10 41 -3 27 -10 35 -17 23 -19z m-282 18
c3 -5 1 -10 -4 -10 -6 0 -11 5 -11 10 0 6 2 10 4 10 3 0 8 -4 11 -10z m60 -20
c3 -5 1 -10 -4 -10 -6 0 -11 5 -11 10 0 6 2 10 4 10 3 0 8 -4 11 -10z m-945
-105 c0 -6 -16 -26 -35 -44 -33 -29 -35 -30 -31 -9 3 13 5 31 5 41 1 10 6 15
11 12 6 -3 10 0 10 8 0 10 7 13 20 10 11 -3 20 -11 20 -18z m-1827 -22 c-7 -2
-19 -2 -25 0 -7 3 -2 5 12 5 14 0 19 -2 13 -5z m1240 -70 c10 -13 23 -22 29
-20 6 1 13 -4 15 -10 3 -7 -2 -13 -11 -13 -9 0 -16 -4 -16 -10 0 -5 6 -9 13
-7 6 1 11 -4 10 -10 -3 -12 9 -17 29 -15 3 1 12 -6 20 -15 11 -14 11 -16 -1
-8 -11 6 -13 4 -8 -8 4 -11 1 -17 -8 -17 -8 0 -14 3 -14 8 3 20 -3 23 -18 11
-15 -12 -16 -12 -11 2 5 13 2 16 -13 12 -24 -7 -69 32 -69 58 0 9 -7 20 -16
23 -9 4 -14 13 -10 21 3 8 1 15 -4 15 -11 0 -14 43 -3 53 7 7 52 -30 86 -70z
m337 73 c0 -2 -7 -6 -15 -10 -8 -3 -15 -1 -15 4 0 6 7 10 15 10 8 0 15 -2 15
-4z m1241 -28 c11 -21 11 -22 -4 -9 -10 7 -17 17 -17 22 0 15 9 10 21 -13z
m-996 -8 c3 -5 2 -10 -4 -10 -5 0 -13 5 -16 10 -3 6 -2 10 4 10 5 0 13 -4 16
-10z m-550 -20 c3 -5 2 -10 -4 -10 -5 0 -13 5 -16 10 -3 6 -2 10 4 10 5 0 13
-4 16 -10z m1529 -12 c-3 -5 -12 -4 -20 3 -19 16 -18 18 6 12 11 -3 17 -9 14
-15z m-1040 -12 c-2 -6 -14 -17 -27 -25 -17 -11 -19 -11 -9 0 6 7 12 21 12 31
0 11 5 15 14 12 8 -3 13 -11 10 -18z m1151 -36 c3 -6 -1 -10 -9 -10 -9 0 -16
5 -16 10 0 6 -4 10 -8 10 -19 0 -7 -28 19 -46 15 -10 30 -27 33 -38 4 -15 11
-18 33 -13 34 7 65 -6 39 -16 -9 -4 -16 -1 -17 6 0 8 -2 9 -5 1 -3 -7 -13 -10
-22 -7 -10 2 -28 0 -42 -6 -14 -5 -19 -10 -11 -10 15 -1 61 -41 61 -54 0 -5
-4 -5 -10 -2 -5 3 -10 1 -10 -4 0 -21 -28 -11 -45 16 -17 25 -17 26 1 20 12
-4 7 3 -11 18 -16 13 -26 27 -22 31 4 4 7 2 7 -4 0 -7 5 -12 11 -12 5 0 7 5 3
12 -5 8 -2 9 11 4 18 -7 18 -6 0 14 -10 11 -14 20 -10 20 5 0 -7 11 -26 25
-36 28 -45 52 -16 47 9 -2 17 2 17 8 0 12 35 -3 45 -20z m-1200 -10 c3 -5 1
-10 -4 -10 -6 0 -11 5 -11 10 0 6 2 10 4 10 3 0 8 -4 11 -10z m1145 -35 c0 -1
-7 -5 -15 -9 -10 -3 -20 5 -31 26 l-16 31 31 -22 c17 -12 31 -24 31 -26z
m-1506 -60 c-6 -16 -24 -21 -24 -7 0 11 11 22 21 22 5 0 6 -7 3 -15z m51 -5
c-3 -5 1 -11 7 -13 7 -3 1 -6 -14 -6 -28 -1 -43 12 -34 28 3 5 15 7 26 4 11
-3 18 -9 15 -13z m49 -27 c-9 -38 -19 -47 -33 -29 -10 11 -9 19 6 35 24 29 35
26 27 -6z m1501 17 c3 -5 2 -10 -4 -10 -5 0 -13 5 -16 10 -3 6 -2 10 4 10 5 0
13 -4 16 -10z m42 -16 c-3 -3 -12 -4 -19 -1 -8 3 -5 6 6 6 11 1 17 -2 13 -5z
m-1727 -8 c0 -3 -4 -8 -10 -11 -5 -3 -10 -1 -10 4 0 6 5 11 10 11 6 0 10 -2
10 -4z m73 -23 c-6 -15 2 -17 25 -4 22 11 62 -4 62 -24 0 -10 5 -13 12 -9 7 5
8 3 2 -7 -11 -19 -12 -40 0 -64 8 -17 7 -18 -6 -8 -17 14 -28 8 -28 -17 0 -9
-10 -27 -22 -40 -12 -13 -23 -30 -25 -38 -2 -20 -23 -40 -23 -23 0 10 -3 11
-13 2 -8 -6 -17 -7 -22 -3 -4 4 -4 -4 0 -18 7 -24 6 -24 -7 -6 -8 10 -19 17
-24 14 -5 -3 -18 3 -28 13 -12 11 -14 19 -7 19 7 0 9 5 5 11 -3 6 -2 14 4 18
8 4 8 11 1 21 -8 11 -12 12 -16 2 -2 -6 -9 -9 -14 -6 -6 3 -2 12 8 19 15 11
15 15 3 30 -13 16 -15 16 -27 -1 -7 -10 -15 -15 -18 -13 -8 8 7 49 16 43 5 -3
6 2 3 10 -3 9 -1 16 5 16 6 0 11 -5 11 -10 0 -6 8 -5 20 2 11 7 18 18 16 24
-2 6 10 19 26 29 17 10 28 13 25 7 -4 -5 0 -13 9 -16 23 -9 28 -2 15 21 -7 15
-7 20 4 20 7 0 11 -6 8 -14z m272 8 c3 -6 -3 -9 -14 -8 -11 0 -17 5 -15 9 7
11 22 10 29 -1z m1390 -1 c3 -6 -1 -7 -9 -4 -18 7 -21 14 -7 14 6 0 13 -4 16
-10z m-2870 -20 c-3 -5 -12 -10 -18 -10 -7 0 -6 4 3 10 19 12 23 12 15 0z
m1543 -7 c7 -12 5 -25 -7 -42 l-16 -26 27 17 c20 13 28 14 32 5 3 -6 5 0 3 15
-4 24 -2 26 20 17 18 -6 23 -5 23 6 0 8 4 15 8 15 5 0 9 -7 9 -15 0 -15 -10
-19 -36 -16 -7 2 -11 -4 -8 -11 2 -7 0 -21 -5 -30 -6 -13 -5 -16 6 -12 8 3 17
0 21 -6 5 -8 11 -8 19 -1 9 8 19 1 38 -28 21 -32 23 -41 12 -55 -8 -11 -14
-13 -19 -7 -3 6 -1 11 4 11 16 0 13 22 -7 47 l-17 23 0 -24 c0 -13 3 -22 8
-19 4 2 7 0 7 -6 0 -21 -19 -20 -34 1 -12 17 -16 19 -16 6 0 -9 5 -18 11 -20
7 -2 9 -13 5 -25 -8 -25 -36 -39 -36 -18 0 8 -4 15 -9 15 -18 0 -41 61 -31 80
14 27 12 40 -6 33 -8 -3 -13 -12 -10 -19 3 -8 3 -21 0 -29 -10 -25 -33 2 -28
31 2 13 0 24 -6 24 -5 0 -10 -5 -10 -12 0 -16 -13 -1 -17 20 -5 30 6 60 25 65
29 8 31 7 40 -10z m1203 0 c13 -16 12 -17 -3 -4 -10 7 -18 15 -18 17 0 8 8 3
21 -13z m-1681 -3 c0 -5 -7 -10 -16 -10 -8 0 -12 5 -9 10 3 6 10 10 16 10 5 0
9 -4 9 -10z m1767 -7 c-4 -3 1 -12 11 -20 15 -13 15 -13 -8 -7 -33 9 -37 13
-20 24 17 11 26 13 17 3z m73 -41 c-12 -4 -50 26 -50 40 0 5 14 -2 31 -14 16
-12 25 -24 19 -26z m-1156 22 c3 -8 2 -12 -4 -9 -6 3 -10 10 -10 16 0 14 7 11
14 -7z m-104 -29 c0 -9 -6 -12 -15 -9 -8 4 -12 10 -9 15 8 14 24 10 24 -6z
m35 -13 c-8 -8 -25 10 -19 20 4 6 9 5 15 -3 4 -7 6 -15 4 -17z m1195 8 c0 -5
-2 -10 -4 -10 -3 0 -8 5 -11 10 -3 6 -1 10 4 10 6 0 11 -4 11 -10z m-2870 -35
c-14 -17 -30 -20 -30 -6 0 5 8 12 18 14 9 3 19 5 21 6 2 0 -2 -6 -9 -14z
m1740 -37 c0 -4 -4 -8 -10 -8 -5 0 -10 7 -10 16 0 8 -4 12 -10 9 -5 -3 -15 -3
-21 1 -8 4 -7 9 2 15 14 8 49 -15 49 -33z m15 32 c3 -5 2 -10 -4 -10 -5 0 -13
5 -16 10 -3 6 -2 10 4 10 5 0 13 -4 16 -10z m1121 -27 c-6 -6 -46 20 -46 30 0
4 11 0 25 -9 14 -9 24 -19 21 -21z m-856 -28 c-7 -8 -17 -15 -22 -15 -6 0 -5
7 2 15 7 8 17 15 22 15 6 0 5 -7 -2 -15z m-1019 -18 c-10 -9 -11 -8 -5 6 3 10
9 15 12 12 3 -3 0 -11 -7 -18z m77 -13 c-7 -15 -14 -21 -16 -15 -5 16 5 41 17
41 7 0 6 -10 -1 -26z m1756 -5 c-8 -13 -21 -11 -27 5 -4 10 0 12 14 9 10 -3
16 -9 13 -14z m-1184 7 c0 -3 -4 -8 -10 -11 -5 -3 -10 -1 -10 4 0 6 5 11 10
11 6 0 10 -2 10 -4z m80 -36 c0 -5 -2 -10 -4 -10 -3 0 -8 5 -11 10 -3 6 -1 10
4 10 6 0 11 -4 11 -10z m-663 -22 c-3 -8 -6 -5 -6 6 -1 11 2 17 5 13 3 -3 4
-12 1 -19z m-37 2 c-12 -8 -12 -11 3 -28 20 -22 23 -39 3 -23 -11 9 -15 9 -19
-1 -2 -7 -8 -9 -13 -5 -5 4 -2 12 5 16 7 5 10 14 7 20 -9 14 1 31 17 31 7 0 6
-4 -3 -10z m756 -18 c-4 -3 -14 2 -24 12 -16 18 -16 18 6 6 13 -6 21 -14 18
-18z m-651 8 c6 0 2 -5 -9 -11 -14 -9 -22 -7 -35 5 -15 15 -14 16 9 12 14 -2
30 -5 35 -6z m-1195 -19 c0 -10 -39 -41 -52 -41 -4 0 -6 9 -5 19 0 11 4 18 7
16 3 -2 12 0 20 6 19 11 30 11 30 0z m1517 -41 c2 0 3 -4 3 -9 0 -5 -20 -11
-45 -13 -25 -2 -45 1 -45 6 0 4 -9 6 -20 3 -11 -3 -22 -1 -25 4 -3 4 7 11 22
15 15 3 33 7 38 8 6 2 23 -1 40 -6 16 -4 31 -8 32 -8z m-1499 -25 c-10 -8 -48
-25 -48 -21 0 12 33 36 41 30 6 -3 9 -7 7 -9z m1420 -17 c9 -9 12 -9 12 1 0
10 3 11 13 3 8 -7 18 -7 27 -2 15 9 70 -17 70 -33 0 -4 -4 -6 -9 -3 -5 4 -7
-3 -4 -15 8 -31 -17 -42 -42 -19 -25 23 -67 30 -73 11 -3 -8 0 -11 7 -7 6 4
21 0 33 -10 18 -13 19 -15 4 -10 -20 7 -49 -11 -40 -25 3 -5 -2 -6 -10 -3 -16
6 -20 17 -17 42 1 6 -2 12 -7 12 -5 0 -14 11 -20 25 -16 34 -15 40 3 25 12
-10 15 -10 15 4 0 19 21 21 38 4z m182 -65 c0 -3 -3 -3 -6 0 -4 3 -15 2 -26
-4 -25 -13 -35 -4 -18 16 9 11 17 12 31 4 10 -5 19 -13 19 -16z m-100 -69 c0
-10 -27 -33 -33 -28 -9 10 4 34 19 34 8 0 14 -3 14 -6z m-276 -57 c-3 -8 -12
-18 -20 -21 -11 -4 -10 0 3 18 20 26 27 28 17 3z m248 -40 c-4 -36 -5 -37 -23
-22 -17 16 -17 18 4 40 12 12 22 22 23 21 1 0 -1 -18 -4 -39z m-1522 2 c0 -6
-4 -7 -10 -4 -5 3 -10 11 -10 16 0 6 5 7 10 4 6 -3 10 -11 10 -16z m1547 -11
c-3 -8 -6 -5 -6 6 -1 11 2 17 5 13 3 -3 4 -12 1 -19z m-172 -15 c-4 -12 1 -14
19 -11 16 3 23 1 20 -7 -3 -7 2 -15 10 -18 21 -8 20 -41 0 -58 -14 -11 -19
-10 -36 10 -10 14 -17 30 -14 37 3 8 0 11 -10 7 -16 -6 -19 -23 -3 -23 5 0 7
-5 4 -10 -4 -6 -11 -8 -16 -5 -5 4 -9 0 -9 -8 0 -8 -7 -17 -15 -20 -11 -5 -12
-1 -5 18 6 16 5 25 -2 27 -19 7 0 38 23 38 17 0 20 5 17 24 -4 18 -1 23 9 19
8 -3 12 -12 8 -20z m-70 -10 c-3 -16 -11 -32 -17 -38 -8 -7 -9 -4 -4 8 3 10 6
27 6 38 0 10 5 19 11 19 7 0 9 -10 4 -27z m148 -5 c19 -42 27 -68 23 -68 -8 0
-46 72 -46 86 0 23 8 16 23 -18z m-1657 12 c8 0 14 -4 14 -9 0 -11 -49 -1 -57
12 -4 7 0 8 11 4 10 -4 24 -7 32 -7z m1694 6 c0 -3 -4 -8 -10 -11 -5 -3 -10
-1 -10 4 0 6 5 11 10 11 6 0 10 -2 10 -4z m137 -28 c-3 -7 -5 -2 -5 12 0 14 2
19 5 13 2 -7 2 -19 0 -25z m-1879 -7 c11 -6 9 -9 -7 -14 -12 -3 -22 1 -25 9
-6 16 12 18 32 5z m1752 5 c0 -3 -4 -8 -10 -11 -5 -3 -10 -1 -10 4 0 6 5 11
10 11 6 0 10 -2 10 -4z m-1443 -32 c-3 -3 -12 -4 -19 -1 -8 3 -5 6 6 6 11 1
17 -2 13 -5z m1307 -50 c3 -8 2 -12 -4 -9 -6 3 -10 10 -10 16 0 14 7 11 14 -7z
m154 -39 c-3 -3 -9 2 -12 12 -6 14 -5 15 5 6 7 -7 10 -15 7 -18z m-38 -55
c-18 -11 -40 -1 -40 19 1 13 3 13 16 -4 16 -19 16 -19 9 5 -7 23 -7 23 10 6
15 -14 16 -19 5 -26z m-60 1 c0 -6 -4 -13 -10 -16 -5 -3 -10 1 -10 9 0 9 5 16
10 16 6 0 10 -4 10 -9z m1332 -3 c-9 -9 -15 -9 -24 0 -9 9 -7 12 12 12 19 0
21 -3 12 -12z m-1362 -28 c0 -16 -4 -30 -9 -30 -8 0 -9 43 -2 58 5 11 11 -3
11 -28z m93 -10 c3 -11 1 -18 -4 -14 -5 3 -9 12 -9 20 0 20 7 17 13 -6z m25
-66 c-3 -14 -5 -12 -10 9 -3 19 -2 25 4 19 6 -6 8 -18 6 -28z m464 -183 c-3
-9 -16 -27 -28 -40 -18 -19 -25 -21 -43 -12 -19 11 -30 42 -13 40 20 -3 31 3
37 20 4 13 12 17 30 14 17 -4 22 -10 17 -22z m-89 -63 c2 -7 1 -22 -3 -33 -5
-11 -6 -31 -4 -45 4 -21 3 -22 -4 -5 -8 18 -10 17 -18 -9 -9 -26 -12 -28 -25
-14 -13 14 -15 14 -27 -6 -9 -14 -12 -15 -8 -3 5 15 1 16 -27 12 -17 -4 -38
-12 -47 -19 -45 -40 -70 -27 -83 42 -7 34 6 44 18 15 6 -16 8 -17 18 -2 7 9
22 15 33 13 12 -2 27 3 34 11 10 12 16 13 28 3 14 -11 15 -10 8 7 -6 16 -5 17
5 8 10 -10 15 -9 23 3 6 8 21 16 34 17 12 0 22 5 22 9 0 13 17 9 23 -4z
m-1273 -9 c0 -5 5 -7 10 -4 6 3 10 -1 10 -9 0 -11 10 -14 43 -12 28 3 48 -1
60 -12 15 -14 17 -13 17 4 1 18 1 18 11 1 5 -9 7 -22 3 -28 -4 -8 0 -8 14 0
17 9 23 8 31 -6 6 -10 11 -12 11 -5 0 6 4 12 9 12 4 0 7 -15 5 -32 l-3 -33 18
22 18 21 13 -34 14 -34 17 27 17 26 4 -29 c2 -23 8 -29 31 -31 15 -1 27 3 27
8 0 6 6 7 13 2 6 -4 20 -6 29 -5 10 2 19 -6 23 -19 5 -15 10 -18 15 -9 11 18
20 -25 20 -95 -1 -47 -3 -56 -11 -42 -10 17 -14 13 -34 -30 -13 -26 -28 -49
-34 -49 -6 -1 -13 -3 -16 -4 -3 -1 -8 -3 -12 -4 -5 -1 -18 -7 -30 -14 -13 -7
-23 -10 -23 -6 0 3 -8 0 -17 -7 -15 -12 -16 -12 -8 1 7 11 2 10 -19 -4 -16
-10 -25 -13 -22 -7 4 6 3 11 -3 11 -5 0 -13 -4 -16 -10 -3 -5 -14 -10 -23 -10
-13 0 -13 2 4 15 19 15 19 15 -1 8 -11 -3 -26 -10 -32 -16 -9 -6 -13 -6 -13 2
0 6 -7 11 -16 11 -10 0 -14 6 -10 15 4 12 -4 15 -39 15 -24 0 -47 5 -50 10 -3
6 2 10 13 10 10 0 21 3 25 6 7 7 -17 34 -30 34 -5 0 -9 9 -10 21 -1 12 -10 27
-20 34 -10 7 -15 17 -11 20 4 4 -4 22 -17 40 -14 17 -22 35 -17 39 4 4 -2 14
-13 22 -19 14 -18 15 10 8 17 -4 27 -3 22 2 -5 5 -13 10 -18 10 -5 1 -13 2
-19 3 -16 2 -12 21 5 21 17 0 20 16 5 25 -8 5 -7 11 1 21 9 11 8 14 -3 14 -8
0 -19 5 -26 12 -10 10 -7 17 10 34 25 25 38 30 38 13z m1320 -37 c0 -15 -2
-15 -10 -2 -13 20 -13 33 0 25 6 -3 10 -14 10 -23z m-485 -2 c4 -6 11 -8 16
-5 5 4 15 3 22 -2 15 -9 38 -10 52 -3 28 16 83 -9 94 -42 12 -35 14 -55 5 -45
-4 3 -20 -1 -36 -9 -16 -9 -36 -13 -43 -10 -8 3 -28 1 -45 -4 -26 -7 -31 -6
-26 5 3 8 0 15 -7 16 -7 1 -29 2 -49 4 -21 2 -38 -1 -38 -6 0 -5 -7 -9 -15 -9
-8 0 -14 3 -14 8 3 19 -2 33 -10 28 -5 -4 -17 -3 -26 0 -14 6 -10 13 21 45 38
39 85 52 99 29z m-129 -25 c2 -5 -5 -21 -16 -35 -19 -23 -21 -24 -34 -8 -7 10
-16 14 -20 11 -4 -4 -25 -13 -47 -19 -34 -10 -40 -10 -35 2 8 21 -11 17 -34
-8 -11 -12 -20 -16 -20 -10 0 17 37 52 55 52 9 0 18 7 22 15 4 12 19 15 66 13
33 -2 62 -7 63 -13z m-811 -5 c3 -5 1 -10 -4 -10 -6 0 -11 5 -11 10 0 6 2 10
4 10 3 0 8 -4 11 -10z m1591 -307 c2 -16 1 -16 -12 1 -8 11 -14 24 -14 30 0
16 24 -12 26 -31z m-426 -63 c0 -5 -7 -7 -15 -4 -8 4 -15 8 -15 10 0 2 7 4 15
4 8 0 15 -4 15 -10z"/>
<path d="M2950 4829 c0 -5 5 -7 10 -4 6 3 10 8 10 11 0 2 -4 4 -10 4 -5 0 -10
-5 -10 -11z"/>
<path d="M2940 4429 c0 -5 5 -7 10 -4 6 3 10 8 10 11 0 2 -4 4 -10 4 -5 0 -10
-5 -10 -11z"/>
<path d="M5210 4366 c0 -2 7 -7 16 -10 8 -3 12 -2 9 4 -6 10 -25 14 -25 6z"/>
<path d="M5364 4295 c22 -17 40 -20 32 -6 -3 5 -16 11 -28 14 -22 6 -22 5 -4
-8z"/>
<path d="M4241 3374 c0 -11 3 -14 6 -6 3 7 2 16 -1 19 -3 4 -6 -2 -5 -13z"/>
<path d="M4250 3340 c0 -5 5 -10 11 -10 5 0 7 5 4 10 -3 6 -8 10 -11 10 -2 0
-4 -4 -4 -10z"/>
<path d="M4303 3154 c4 -4 2 -13 -4 -21 -7 -8 -8 -13 -1 -13 5 0 15 6 21 14 9
11 8 15 -6 20 -10 4 -14 4 -10 0z"/>
<path d="M4266 3113 c-6 -14 -5 -15 5 -6 7 7 10 15 7 18 -3 3 -9 -2 -12 -12z"/>
<path d="M4300 3069 c0 -5 5 -7 10 -4 6 3 10 8 10 11 0 2 -4 4 -10 4 -5 0 -10
-5 -10 -11z"/>
<path d="M4668 3154 c4 -22 6 -24 14 -10 9 16 3 36 -11 36 -5 0 -6 -12 -3 -26z"/>
<path d="M4636 2763 c-6 -14 -5 -15 5 -6 7 7 10 15 7 18 -3 3 -9 -2 -12 -12z"/>
<path d="M4400 2529 c0 -5 5 -7 10 -4 6 3 10 8 10 11 0 2 -4 4 -10 4 -5 0 -10
-5 -10 -11z"/>
<path d="M6197 5512 c-26 -16 -35 -31 -19 -33 22 -4 61 -4 57 0 -3 2 3 10 13
18 9 8 12 12 5 9 -6 -4 -15 0 -20 8 -7 13 -12 12 -36 -2z"/>
<path d="M2880 5510 c0 -5 -7 -10 -16 -10 -14 0 -14 -2 0 -15 16 -17 44 -19
64 -6 10 6 7 12 -12 24 -29 20 -36 21 -36 7z"/>
<path d="M5280 5455 c-8 -9 -8 -15 -2 -15 12 0 26 19 19 26 -2 2 -10 -2 -17
-11z"/>
<path d="M6200 5435 c-28 -8 -36 -13 -22 -14 26 -1 30 -27 5 -35 -10 -3 1 -3
24 0 24 3 57 2 75 -1 l32 -7 -22 -18 c-11 -10 -18 -20 -15 -24 4 -3 -6 -6 -22
-6 -41 0 -24 -11 26 -16 54 -7 64 -14 19 -14 -27 0 -31 -3 -22 -12 7 -7 12
-18 12 -26 0 -12 -5 -11 -26 3 -28 18 -43 15 -20 -4 9 -7 35 -15 58 -19 39 -5
67 -24 68 -45 0 -5 -20 -7 -45 -6 -24 2 -47 0 -51 -4 -4 -4 0 -7 9 -7 10 0 25
-8 35 -18 21 -21 57 -37 47 -22 -3 6 0 10 9 10 17 0 133 89 141 109 3 8 -1 21
-9 29 -12 12 -12 19 0 48 l14 34 -41 21 c-31 15 -44 18 -53 9 -8 -8 -7 -13 3
-19 9 -6 6 -10 -13 -13 -14 -3 -27 -1 -28 4 -2 6 -25 12 -51 15 -26 3 -47 10
-47 14 0 5 -9 9 -21 9 -11 0 -17 5 -14 10 3 6 16 10 28 10 18 0 19 2 7 10 -19
12 -34 11 -90 -5z m217 -91 c-3 -3 -12 -4 -19 -1 -8 3 -5 6 6 6 11 1 17 -2 13
-5z m-95 -86 c-7 -7 -12 -8 -12 -2 0 14 12 26 19 19 2 -3 -1 -11 -7 -17z"/>
<path d="M2835 5426 l30 -14 -27 -11 c-27 -10 -41 -34 -15 -27 36 12 77 15 72
6 -7 -11 8 -14 19 -3 3 4 -4 13 -16 20 -22 12 -22 12 12 13 56 0 21 21 -46 26
-57 4 -58 4 -29 -10z"/>
<path d="M4340 5392 c0 -43 -20 -87 -33 -70 -6 9 -7 8 -3 -5 3 -10 6 -28 7
-40 0 -13 3 -16 6 -8 5 11 7 11 14 0 7 -10 9 -7 8 11 -1 14 -1 36 0 50 1 23 3
23 12 7 6 -10 8 -26 5 -35 -4 -11 1 -8 14 7 11 13 19 31 19 40 -1 14 -2 13 -6
-1 -8 -30 -26 -21 -20 10 3 16 0 35 -9 46 -13 19 -14 18 -14 -12z"/>
<path d="M6348 5413 c7 -3 16 -2 19 1 4 3 -2 6 -13 5 -11 0 -14 -3 -6 -6z"/>
<path d="M4442 5380 c0 -14 2 -19 5 -12 2 6 2 18 0 25 -3 6 -5 1 -5 -13z"/>
<path d="M4500 5395 c0 -5 5 -17 10 -25 5 -8 10 -10 10 -5 0 6 -5 17 -10 25
-5 8 -10 11 -10 5z"/>
<path d="M2765 5380 c-3 -5 -1 -10 5 -10 6 0 -2 -11 -18 -25 -16 -14 -29 -33
-28 -42 0 -9 -10 -22 -23 -29 -28 -14 -41 -32 -41 -58 0 -12 5 -16 15 -12 8 3
14 0 12 -6 -3 -17 64 -59 84 -53 9 3 20 2 23 -4 7 -11 44 -3 52 11 4 6 -5 8
-25 3 -38 -8 -40 -1 -3 20 27 16 27 16 -20 11 -34 -4 -48 -2 -48 7 0 24 19 41
47 43 15 1 39 7 53 13 l25 11 -27 -5 c-27 -5 -38 7 -18 20 17 10 11 23 -12 28
-15 3 -9 5 14 6 42 1 63 21 23 21 -14 0 -24 4 -20 9 3 5 -4 12 -15 16 -11 3
-20 13 -20 21 0 16 -26 19 -35 4z m40 -120 c3 -5 2 -10 -4 -10 -5 0 -13 5 -16
10 -3 6 -2 10 4 10 5 0 13 -4 16 -10z"/>
<path d="M3196 5361 c-11 -4 -15 -10 -10 -13 5 -4 18 0 29 8 20 15 12 17 -19
5z"/>
<path d="M3245 5360 c-3 -5 -2 -10 4 -10 5 0 13 5 16 10 3 6 2 10 -4 10 -5 0
-13 -4 -16 -10z"/>
<path d="M2873 5353 c9 -2 23 -2 30 0 6 3 -1 5 -18 5 -16 0 -22 -2 -12 -5z"/>
<path d="M6208 5353 c6 -2 18 -2 25 0 6 3 1 5 -13 5 -14 0 -19 -2 -12 -5z"/>
<path d="M4111 5334 c0 -11 3 -14 6 -6 3 7 2 16 -1 19 -3 4 -6 -2 -5 -13z"/>
<path d="M4541 5334 c0 -11 3 -14 6 -6 3 7 2 16 -1 19 -3 4 -6 -2 -5 -13z"/>
<path d="M3208 5313 c-10 -2 -18 -9 -18 -14 0 -14 26 -11 40 6 13 15 9 16 -22
8z"/>
<path d="M4900 5305 c0 -8 4 -15 10 -15 5 0 7 7 4 15 -4 8 -8 15 -10 15 -2 0
-4 -7 -4 -15z"/>
<path d="M3150 5300 c0 -5 5 -10 10 -10 6 0 10 5 10 10 0 6 -4 10 -10 10 -5 0
-10 -4 -10 -10z"/>
<path d="M4510 5298 c0 -9 5 -20 10 -23 13 -8 13 5 0 25 -8 13 -10 13 -10 -2z"/>
<path d="M4080 5291 c0 -6 5 -13 10 -16 6 -3 10 1 10 9 0 9 -4 16 -10 16 -5 0
-10 -4 -10 -9z"/>
<path d="M4432 5280 c0 -14 2 -19 5 -12 2 6 2 18 0 25 -3 6 -5 1 -5 -13z"/>
<path d="M4560 5259 c0 -11 -4 -18 -9 -15 -5 4 -4 -7 2 -24 6 -16 12 -28 13
-27 8 11 12 87 4 87 -5 0 -10 -9 -10 -21z"/>
<path d="M4620 5275 c0 -5 5 -17 10 -25 5 -8 10 -10 10 -5 0 6 -5 17 -10 25
-5 8 -10 11 -10 5z"/>
<path d="M4765 5240 c4 -62 4 -60 14 -60 11 0 3 66 -10 90 -4 8 -6 -5 -4 -30z"/>
<path d="M4928 5250 c2 -16 9 -30 14 -30 5 0 6 10 3 23 -11 35 -22 40 -17 7z"/>
<path d="M4660 5261 c0 -6 4 -13 10 -16 6 -3 7 1 4 9 -7 18 -14 21 -14 7z"/>
<path d="M4731 5244 c-1 -19 6 -37 16 -45 14 -12 16 -12 8 0 -4 8 -12 28 -16
45 l-7 31 -1 -31z"/>
<path d="M4836 5257 c3 -10 9 -15 12 -12 3 3 0 11 -7 18 -10 9 -11 8 -5 -6z"/>
<path d="M5025 5260 c3 -5 8 -10 11 -10 2 0 4 5 4 10 0 6 -5 10 -11 10 -5 0
-7 -4 -4 -10z"/>
<path d="M2958 5248 c9 -9 15 -9 24 0 9 9 7 12 -12 12 -19 0 -21 -3 -12 -12z"/>
<path d="M1617 5243 c-3 -5 6 -29 20 -53 24 -40 27 -42 34 -22 5 12 13 22 19
22 14 0 13 13 -2 33 -15 19 -63 33 -71 20z"/>
<path d="M4693 5215 c1 -21 4 -30 9 -22 10 16 10 45 -1 51 -5 3 -9 -10 -8 -29z"/>
<path d="M4885 5226 c10 -14 19 -26 22 -26 7 0 -17 39 -28 46 -6 3 -3 -5 6
-20z"/>
<path d="M7525 5232 c-5 -4 -16 -15 -23 -24 -11 -14 -10 -20 8 -38 l20 -20 25
24 c32 32 33 66 3 66 -13 0 -27 -4 -33 -8z"/>
<path d="M3802 5210 c0 -14 2 -19 5 -12 2 6 2 18 0 25 -3 6 -5 1 -5 -13z"/>
<path d="M3970 5219 c0 -5 5 -7 10 -4 6 3 10 8 10 11 0 2 -4 4 -10 4 -5 0 -10
-5 -10 -11z"/>
<path d="M4828 5213 c-4 -14 0 -27 9 -35 18 -14 43 -20 43 -8 0 11 -30 34 -31
24 -1 -5 -4 2 -8 16 -7 25 -7 25 -13 3z"/>
<path d="M3640 5190 c6 -11 13 -20 16 -20 2 0 0 9 -6 20 -6 11 -13 20 -16 20
-2 0 0 -9 6 -20z"/>
<path d="M3940 5194 c4 -32 0 -40 -10 -24 -7 11 -10 8 -9 -15 0 -16 3 -24 6
-17 2 6 11 12 18 12 21 0 26 30 9 47 -14 15 -16 15 -14 -3z"/>
<path d="M3976 5173 c-6 -14 -5 -15 5 -6 7 7 10 15 7 18 -3 3 -9 -2 -12 -12z"/>
<path d="M6266 5151 c15 -15 47 -17 51 -3 3 8 -6 12 -28 12 -20 0 -29 -4 -23
-9z"/>
<path d="M3640 5135 c7 -9 15 -13 17 -11 7 7 -7 26 -19 26 -6 0 -6 -6 2 -15z"/>
<path d="M4860 5121 c0 -6 4 -13 10 -16 6 -3 7 1 4 9 -7 18 -14 21 -14 7z"/>
<path d="M2690 5102 c0 -4 6 -14 13 -21 10 -10 7 -11 -14 -6 -20 5 -26 3 -26
-10 0 -10 6 -14 16 -9 9 3 33 8 53 11 41 6 42 23 2 23 -13 0 -24 5 -24 10 0 6
-4 10 -10 10 -5 0 -10 -4 -10 -8z"/>
<path d="M2830 5095 c-31 -18 -7 -18 40 0 31 12 32 14 10 14 -14 0 -36 -6 -50
-14z"/>
<path d="M6249 5095 c43 -19 60 -19 35 0 -10 8 -30 14 -44 14 -23 0 -22 -1 9
-14z"/>
<path d="M6419 5105 c-3 -2 -14 -6 -25 -8 -10 -1 -28 -8 -39 -15 -18 -10 -16
-11 18 -12 20 0 37 -3 37 -7 0 -5 11 -9 25 -9 15 -1 25 4 25 11 0 18 -17 28
-25 15 -3 -5 -11 -10 -17 -10 -6 0 -3 9 7 20 15 17 9 31 -6 15z"/>
<path d="M5704 5061 c3 -5 -10 -18 -29 -30 -35 -20 -35 -20 -25 -1 15 29 -2
25 -32 -7 -29 -33 -43 -73 -23 -73 7 0 19 8 26 17 12 15 12 16 -4 10 -15 -6
-16 -4 -6 15 8 16 13 18 19 8 7 -11 13 -10 34 4 15 9 32 14 38 10 7 -4 8 -3 4
5 -4 6 -1 14 8 17 15 6 11 34 -6 34 -5 0 -7 -4 -4 -9z"/>
<path d="M2626 5002 c4 -15 11 -32 16 -39 6 -7 4 -12 -6 -15 -10 -2 -13 -8 -7
-17 7 -11 13 -10 33 3 14 9 28 13 31 9 4 -3 7 1 7 10 0 10 -6 16 -12 15 -7 -2
-12 3 -10 10 1 6 -4 12 -10 12 -9 0 -8 3 2 10 15 9 16 9 -35 25 -12 3 -14 -1
-9 -23z"/>
<path d="M2834 5015 c-10 -8 -14 -14 -9 -15 15 0 40 18 34 24 -3 3 -14 -1 -25
-9z"/>
<path d="M6254 5015 c11 -8 25 -15 30 -15 6 0 2 7 -8 15 -11 8 -25 15 -30 15
-6 0 -2 -7 8 -15z"/>
<path d="M6475 5023 c-24 -6 -44 -23 -27 -23 19 0 2 -28 -21 -34 -20 -6 -18
-8 17 -26 29 -15 43 -17 52 -9 18 15 8 30 -14 22 -16 -6 -16 -5 -1 13 17 20
32 65 21 63 -4 -1 -16 -3 -27 -6z"/>
<path d="M5783 5009 c-32 -9 -42 -22 -25 -33 4 -2 25 7 47 20 41 25 34 29 -22
13z"/>
<path d="M5661 4986 c-10 -12 -8 -13 8 -9 12 3 18 9 15 14 -7 12 -10 11 -23
-5z"/>
<path d="M5710 4976 c7 -7 13 -7 20 0 6 6 3 10 -10 10 -13 0 -16 -4 -10 -10z"/>
<path d="M6395 4920 c-3 -5 1 -10 9 -10 9 0 16 -6 16 -14 0 -15 50 -36 84 -35
12 0 16 3 9 5 -7 3 -9 12 -6 20 3 8 4 14 2 14 -47 5 -86 14 -96 22 -7 6 -14 5
-18 -2z"/>
<path d="M2698 4915 c-4 -4 -38 -10 -80 -14 -9 -1 2 -41 12 -41 22 0 70 24 70
35 0 7 6 16 13 18 6 3 7 6 1 6 -6 1 -13 -1 -16 -4z"/>
<path d="M2705 4860 c-19 -8 -19 -9 2 -9 12 -1 25 4 28 9 7 12 -2 12 -30 0z"/>
<path d="M6385 4860 c3 -5 16 -10 28 -9 21 0 21 1 2 9 -28 12 -37 12 -30 0z"/>
<path d="M2617 4844 c-3 -4 1 -16 9 -28 8 -13 11 -26 7 -29 -3 -4 4 -7 17 -7
22 0 23 1 6 13 -18 13 -18 15 5 35 l23 22 -30 0 c-17 0 -33 -3 -37 -6z"/>
<path d="M6462 4826 l28 -23 -23 -11 c-15 -7 -17 -11 -6 -11 19 -1 62 46 54
59 -4 6 -23 10 -43 10 l-37 0 27 -24z"/>
<path d="M6407 4809 c7 -7 15 -10 18 -7 3 3 -2 9 -12 12 -14 6 -15 5 -6 -5z"/>
<path d="M2620 4753 c0 -32 15 -45 43 -38 15 4 25 11 22 15 -3 5 0 12 7 16 8
5 6 10 -8 15 -35 14 -64 10 -64 -8z"/>
<path d="M6440 4762 c0 -6 44 -41 53 -42 4 0 7 11 7 25 0 22 -4 25 -30 23 -16
-1 -30 -4 -30 -6z"/>
<path d="M6440 4665 c0 -8 61 -37 67 -31 3 2 -9 12 -26 20 -31 17 -41 19 -41
11z"/>
<path d="M2620 4635 c-7 -8 -8 -15 -2 -15 5 0 15 7 22 15 7 8 8 15 2 15 -5 0
-15 -7 -22 -15z"/>
<path d="M2651 4629 c-12 -12 -20 -23 -18 -26 7 -6 46 19 51 34 8 19 -7 16
-33 -8z"/>
<path d="M6260 4549 c0 -5 5 -7 10 -4 6 3 10 8 10 11 0 2 -4 4 -10 4 -5 0 -10
-5 -10 -11z"/>
<path d="M6771 4506 c-7 -8 -19 -12 -27 -9 -8 3 -14 -1 -14 -11 0 -9 7 -16 15
-16 8 0 15 -4 15 -10 0 -5 -11 -10 -25 -10 -14 0 -25 -4 -25 -9 0 -5 -16 -11
-35 -13 -27 -3 -32 -1 -23 9 8 10 6 13 -6 13 -9 0 -16 -4 -16 -10 0 -5 -6 -10
-13 -10 -7 0 -23 -10 -37 -23 -14 -13 -35 -21 -47 -19 -13 2 -23 -2 -23 -9 0
-8 -7 -5 -20 6 -21 19 -25 14 -20 -30 2 -24 0 -21 28 -29 14 -5 22 -3 22 4 0
7 -9 14 -20 17 -11 3 -20 9 -20 14 0 5 11 4 24 -1 13 -5 40 -7 60 -4 37 4 45
-3 24 -24 -9 -9 -6 -12 14 -12 15 0 30 5 33 10 3 6 12 10 18 10 8 0 8 -3 -1
-9 -19 -12 8 -21 63 -21 33 0 47 5 58 20 8 11 32 29 53 39 32 16 36 21 21 26
-13 5 -15 11 -7 20 8 9 5 14 -11 18 -19 5 -20 8 -9 21 7 9 24 16 39 16 25 1
25 1 7 15 -11 8 -29 15 -41 15 -12 0 -26 5 -31 10 -8 8 -15 6 -23 -4z m-68
-103 c-7 -2 -19 -2 -25 0 -7 3 -2 5 12 5 14 0 19 -2 13 -5z m-78 -23 c3 -5 -1
-10 -9 -10 -9 0 -16 5 -16 10 0 6 4 10 9 10 6 0 13 -4 16 -10z"/>
<path d="M2565 4490 c4 -6 11 -8 16 -5 14 9 11 15 -7 15 -8 0 -12 -5 -9 -10z"/>
<path d="M6500 4492 c-51 -17 -32 -98 20 -85 16 4 18 8 8 14 -9 6 -2 9 20 9
17 0 32 5 32 11 0 6 -7 9 -15 5 -19 -7 -47 3 -39 15 9 14 -10 36 -26 31z m10
-44 c0 -13 -23 -5 -28 10 -2 7 2 10 12 6 9 -3 16 -11 16 -16z"/>
<path d="M6540 4490 c0 -5 7 -10 16 -10 8 0 12 5 9 10 -3 6 -10 10 -16 10 -5
0 -9 -4 -9 -10z"/>
<path d="M6454 4262 c-1 -15 1 -21 3 -14 3 6 9 12 14 12 6 0 7 -6 3 -12 -6
-10 -5 -10 8 -1 8 7 18 10 21 6 4 -3 7 -4 7 0 0 10 -31 37 -43 37 -7 0 -13
-12 -13 -28z"/>
<path d="M6188 4133 c7 -3 16 -2 19 1 4 3 -2 6 -13 5 -11 0 -14 -3 -6 -6z"/>
<path d="M6168 4073 c6 -2 18 -2 25 0 6 3 1 5 -13 5 -14 0 -19 -2 -12 -5z"/>
<path d="M5988 3444 c12 -8 20 -19 17 -24 -3 -5 -1 -11 5 -15 5 -3 10 1 10 9
0 17 -27 46 -43 46 -6 0 -1 -7 11 -16z"/>
<path d="M6017 3379 c7 -7 15 -10 18 -7 3 3 -2 9 -12 12 -14 6 -15 5 -6 -5z"/>
<path d="M6045 3330 c3 -5 14 -10 23 -10 15 0 15 2 2 10 -20 13 -33 13 -25 0z"/>
<path d="M6020 2550 c0 -5 5 -10 11 -10 5 0 7 5 4 10 -3 6 -8 10 -11 10 -2 0
-4 -4 -4 -10z"/>
<path d="M2668 2533 c-14 -2 -32 -11 -38 -19 -11 -12 -5 -13 35 -8 51 6 102
22 73 23 -9 1 -22 3 -30 4 -7 2 -25 2 -40 0z"/>
<path d="M5880 2430 c-9 -6 -10 -10 -3 -10 6 0 15 5 18 10 8 12 4 12 -15 0z"/>
<path d="M5795 2280 c-3 -5 -2 -10 4 -10 5 0 13 5 16 10 3 6 2 10 -4 10 -5 0
-13 -4 -16 -10z"/>
<path d="M2975 2160 c3 -5 8 -10 11 -10 2 0 4 5 4 10 0 6 -5 10 -11 10 -5 0
-7 -4 -4 -10z"/>
<path d="M2589 2123 c-13 -16 -12 -17 4 -4 16 13 21 21 13 21 -2 0 -10 -8 -17
-17z"/>
<path d="M6212 2070 c-15 -25 -16 -43 -1 -34 6 3 15 0 20 -7 6 -10 9 -10 9 -2
0 7 7 10 18 7 16 -5 16 -5 0 6 -10 6 -18 20 -18 30 0 26 -12 25 -28 0z"/>
<path d="M2586 2030 c8 -45 9 -46 39 -26 27 18 25 40 -3 34 -10 -2 -23 3 -30
12 -11 13 -12 9 -6 -20z"/>
<path d="M5370 2020 c0 -11 2 -20 4 -20 2 0 6 9 9 20 3 11 1 20 -4 20 -5 0 -9
-9 -9 -20z"/>
<path d="M6186 1999 c-11 -11 -21 -17 -24 -14 -4 4 -59 -34 -96 -67 -17 -15
-16 -16 23 -11 39 5 41 4 41 -20 0 -14 -7 -32 -15 -41 -9 -9 -11 -17 -5 -21 7
-4 6 -14 -2 -28 -7 -12 -13 -31 -14 -42 -3 -39 -4 -44 -20 -60 -12 -12 -14
-19 -6 -27 8 -8 7 -15 -4 -25 -8 -8 -14 -23 -14 -33 0 -11 -9 -24 -21 -30 -12
-7 -18 -18 -15 -26 3 -9 1 -12 -4 -9 -15 9 -12 -36 4 -67 14 -26 5 -41 -9 -18
-3 5 -16 15 -28 21 -21 12 -21 11 -4 -8 9 -11 14 -23 10 -26 -3 -4 3 -7 15 -7
11 0 27 -3 36 -6 11 -4 16 0 16 14 0 18 15 62 40 117 10 22 38 95 65 165 19
49 19 51 41 174 2 11 8 24 14 30 16 16 12 36 -7 30 -16 -5 -16 -4 0 9 13 10
16 20 10 30 -7 12 -11 11 -27 -4z"/>
<path d="M2630 1970 c0 -5 10 -10 23 -10 18 0 19 2 7 10 -19 13 -30 13 -30 0z"/>
<path d="M2630 1929 c0 -5 9 -9 20 -9 11 0 20 2 20 4 0 2 -9 6 -20 9 -11 3
-20 1 -20 -4z"/>
<path d="M3270 1910 c20 -13 43 -13 35 0 -3 6 -16 10 -28 10 -18 0 -19 -2 -7
-10z"/>
<path d="M2601 1894 c0 -11 3 -14 6 -6 3 7 2 16 -1 19 -3 4 -6 -2 -5 -13z"/>
<path d="M2670 1870 c0 -5 5 -10 10 -10 6 0 10 5 10 10 0 6 -4 10 -10 10 -5 0
-10 -4 -10 -10z"/>
<path d="M2630 1836 c0 -21 -6 -36 -15 -40 -8 -3 -15 -15 -15 -26 0 -12 -4
-18 -10 -15 -17 11 -11 -5 11 -28 l22 -22 -6 31 c-7 35 0 49 18 34 8 -7 11 -1
9 21 -2 22 2 29 13 27 9 -2 18 2 20 8 2 7 -4 11 -14 10 -12 -1 -17 5 -15 17 2
9 -2 17 -8 17 -5 0 -10 -15 -10 -34z"/>
<path d="M5200 1866 c0 -3 9 -10 20 -16 11 -6 20 -8 20 -6 0 3 -9 10 -20 16
-11 6 -20 8 -20 6z"/>
<path d="M2570 1841 c0 -25 6 -27 13 -6 4 8 2 17 -3 20 -6 4 -10 -3 -10 -14z"/>
<path d="M5637 1834 c-15 -15 8 -34 42 -34 32 1 34 2 16 13 -11 6 -22 12 -25
12 -3 0 -10 3 -16 7 -6 4 -14 5 -17 2z"/>
<path d="M5544 1788 c-10 -16 32 -47 56 -41 11 3 20 10 20 15 0 6 7 7 16 4 14
-5 15 -4 5 8 -7 8 -18 13 -25 10 -7 -3 -24 0 -39 5 -18 7 -28 7 -33 -1z"/>
<path d="M2533 1725 c-7 -8 -13 -24 -13 -35 0 -14 4 -19 13 -14 8 6 8 3 -2 -9
-7 -9 -11 -23 -7 -32 6 -18 36 -9 36 11 0 8 7 14 15 14 9 0 15 9 15 21 0 18
-2 19 -15 9 -13 -11 -15 -8 -15 19 0 34 -8 38 -27 16z"/>
<path d="M3556 1613 c-6 -14 -5 -15 5 -6 7 7 10 15 7 18 -3 3 -9 -2 -12 -12z"/>
<path d="M2616 1544 c-3 -9 -6 -28 -7 -42 0 -15 -3 -21 -6 -14 -8 20 -23 14
-23 -10 0 -17 -3 -19 -9 -10 -7 11 -9 11 -13 0 -10 -27 4 -38 49 -38 39 0 44
2 33 15 -10 12 -10 15 0 15 10 0 10 3 0 15 -6 8 -12 30 -13 50 -1 39 -2 42
-11 19z"/>
<path d="M4751 1514 c0 -11 3 -14 6 -6 3 7 2 16 -1 19 -3 4 -6 -2 -5 -13z"/>
<path d="M3685 1460 c-3 -5 1 -10 10 -10 9 0 13 5 10 10 -3 6 -8 10 -10 10 -2
0 -7 -4 -10 -10z"/>
<path d="M2494 1415 c9 -30 12 -32 14 -15 2 13 -3 29 -11 37 -13 13 -13 10 -3
-22z"/>
<path d="M2460 1393 c0 -12 -5 -23 -12 -25 -7 -3 -13 -20 -14 -39 -4 -66 -16
-144 -25 -161 -13 -25 6 -23 31 2 42 42 63 100 57 159 -3 30 -13 61 -21 70
-15 14 -16 13 -16 -6z"/>
<path d="M6126 1335 c-9 -13 -16 -29 -16 -35 0 -5 -4 -10 -10 -10 -5 0 -10 -7
-10 -15 0 -21 45 -108 63 -123 12 -11 17 -7 26 19 14 42 14 109 0 109 -8 0
-10 13 -6 37 5 27 3 33 -5 25 -17 -17 -28 -15 -22 3 9 23 -2 18 -20 -10z"/>
<path d="M1813 1295 c-6 -11 -13 -33 -17 -50 -6 -28 -5 -27 15 8 11 21 18 44
16 50 -2 7 -8 4 -14 -8z"/>
<path d="M681 1225 c-7 -22 -26 -75 -42 -119 -20 -51 -29 -92 -27 -119 4 -53
24 -59 33 -10 12 71 60 121 107 114 4 0 5 5 2 13 -3 8 7 18 26 26 30 12 60 45
60 64 0 6 -5 5 -12 -2 -22 -22 -29 -12 -11 15 l18 26 -30 -18 -30 -19 18 21
c18 20 18 21 -18 19 -28 -1 -40 -7 -50 -25 -12 -24 -12 -24 -22 15 l-9 39 -13
-40z m84 -23 c-8 -8 -25 10 -19 20 4 6 9 5 15 -3 4 -7 6 -15 4 -17z"/>
<path d="M1344 1242 c-21 -3 -32 -18 -55 -82 -7 -19 -25 -63 -41 -98 -30 -67
-35 -87 -17 -76 8 5 8 1 0 -14 -14 -26 -14 -35 -1 -27 12 8 13 -10 1 -33 -5
-9 -14 -28 -19 -42 -9 -22 -11 -18 -11 28 -1 30 -6 52 -12 52 -7 0 -8 -11 -4
-30 4 -19 3 -30 -4 -30 -6 0 -11 -11 -11 -25 0 -14 5 -25 10 -25 6 0 10 -10
10 -22 0 -19 2 -20 11 -8 8 12 10 8 8 -15 0 -16 0 -46 1 -65 1 -29 3 -32 10
-15 8 19 9 19 9 -2 2 -46 17 -21 38 60 24 94 43 192 43 227 0 13 6 39 13 58 9
27 9 36 0 39 -13 5 1 52 32 113 19 36 18 37 -11 32z m-11 -32 c-3 -12 -8 -19
-11 -16 -5 6 5 36 12 36 2 0 2 -9 -1 -20z m-72 -173 c-10 -9 -11 -8 -5 6 3 10
9 15 12 12 3 -3 0 -11 -7 -18z m1 -49 c-7 -7 -12 -8 -12 -2 0 14 12 26 19 19
2 -3 -1 -11 -7 -17z"/>
<path d="M1800 1200 c-6 -11 -9 -26 -7 -33 3 -7 10 1 16 17 14 35 7 47 -9 16z"/>
<path d="M770 1109 c0 -5 5 -7 10 -4 6 3 10 8 10 11 0 2 -4 4 -10 4 -5 0 -10
-5 -10 -11z"/>
<path d="M1793 1105 c-3 -9 -3 -18 -1 -21 3 -3 8 4 11 16 6 23 -1 27 -10 5z"/>
<path d="M1212 1050 c0 -14 2 -19 5 -12 2 6 2 18 0 25 -3 6 -5 1 -5 -13z"/>
<path d="M6632 1054 c-10 -11 -12 -36 -7 -102 4 -63 3 -83 -4 -72 -8 11 -10
-10 -9 -77 2 -89 10 -111 21 -56 3 16 8 39 12 53 5 20 5 22 -5 10 -10 -12 -10
-10 -5 10 4 14 11 71 17 128 11 104 6 134 -20 106z"/>
<path d="M1771 1025 c0 -16 4 -39 9 -50 7 -17 9 -16 9 10 0 17 -4 39 -9 50 -7
17 -9 16 -9 -10z"/>
<path d="M913 883 c-41 -94 -52 -129 -64 -199 -18 -110 7 -173 30 -76 15 57
45 118 76 152 25 28 45 81 45 119 -1 25 -1 25 -15 7 -11 -14 -15 -16 -15 -5 0
8 -14 -14 -30 -48 -31 -67 -52 -88 -24 -25 18 40 29 93 22 112 -2 7 -13 -10
-25 -37z"/>
<path d="M7085 795 l5 -70 -14 40 c-8 22 -15 32 -15 23 -1 -9 3 -27 8 -40 20
-55 22 -78 6 -78 -19 0 -19 -5 2 -37 17 -26 17 -27 -1 -20 -18 7 -19 3 -13
-99 5 -78 11 -112 23 -125 9 -10 19 -17 23 -16 3 0 16 -4 28 -11 18 -10 23 -9
31 5 6 9 7 26 3 37 -9 26 -2 116 9 116 5 0 10 -10 12 -22 4 -22 4 -22 17 4 12
23 11 36 -4 93 -10 36 -21 61 -25 55 -4 -6 -12 1 -20 17 l-13 28 -8 -25 c-6
-22 -7 -20 -8 14 -1 27 -5 37 -14 33 -9 -3 -12 4 -11 24 1 16 -4 50 -11 76
l-14 48 4 -70z m35 -130 c0 -8 -2 -15 -4 -15 -2 0 -6 7 -10 15 -3 8 -1 15 4
15 6 0 10 -7 10 -15z m67 -127 c-3 -8 -6 -5 -6 6 -1 11 2 17 5 13 3 -3 4 -12
1 -19z"/>
<path d="M1881 834 c0 -11 3 -14 6 -6 3 7 2 16 -1 19 -3 4 -6 -2 -5 -13z"/>
<path d="M1855 813 c-4 -18 -10 -33 -14 -33 -3 0 -8 -37 -9 -82 -3 -68 0 -89
19 -130 26 -56 39 -61 39 -15 0 48 20 148 35 176 l13 25 7 -32 c8 -37 38 -44
55 -13 15 28 14 49 -2 33 -17 -17 -31 -15 -24 3 9 24 -4 17 -14 -7 -8 -19 -9
-16 -4 11 4 19 13 41 20 49 19 18 18 28 -1 12 -12 -10 -15 -10 -15 0 0 8 -3
10 -7 7 -3 -4 -13 -1 -21 5 -12 10 -17 9 -30 -10 -19 -29 -30 -28 -35 6 l-4
27 -8 -32z m28 -53 c-3 -11 -7 -20 -9 -20 -2 0 -4 9 -4 20 0 11 4 20 9 20 5 0
7 -9 4 -20z"/>
<path d="M1996 795 c-9 -26 -7 -32 5 -12 6 10 9 21 6 23 -2 3 -7 -2 -11 -11z"/>
<path d="M7666 762 c18 -47 12 -70 -7 -28 -8 17 -15 22 -20 15 -4 -8 -13 -2
-24 17 -15 26 -15 17 1 -21 4 -9 0 -15 -9 -15 -9 0 -19 9 -22 21 -4 11 -9 18
-11 16 -10 -10 20 -58 33 -53 8 4 11 1 7 -5 -3 -6 3 -20 14 -32 12 -12 35 -52
52 -89 18 -38 34 -68 37 -68 3 0 3 41 0 90 -7 90 -20 137 -51 175 -15 18 -15
16 0 -23z"/>
<path d="M1359 744 c-20 -52 -61 -228 -62 -269 -3 -89 35 -133 49 -57 9 54 33
125 49 142 7 8 25 35 38 59 20 35 23 48 14 62 -8 13 -8 28 1 56 10 35 10 36
-4 18 -8 -11 -17 -30 -21 -43 -7 -30 -29 -22 -25 9 2 22 2 23 -11 7 -21 -26
-28 -22 -16 8 5 15 7 29 5 32 -3 3 -11 -8 -17 -24z m31 -63 c0 -20 -39 -74
-40 -55 0 20 22 74 31 74 5 0 9 -9 9 -19z"/>
<path d="M954 728 l-19 -23 23 19 c21 18 27 26 19 26 -2 0 -12 -10 -23 -22z"/>
<path d="M1515 663 c-5 -10 -9 -21 -9 -25 -1 -3 -22 -23 -48 -43 -27 -20 -48
-40 -48 -46 0 -15 46 -29 77 -23 15 3 38 7 51 9 32 3 44 18 40 46 l-4 24 -14
-27 c-16 -34 -30 -37 -22 -5 5 19 3 20 -10 10 -8 -7 -17 -11 -20 -8 -3 3 -11
-1 -18 -10 -7 -8 -17 -15 -22 -15 -5 0 3 12 17 28 14 15 30 42 35 61 10 38 7
52 -5 24z"/>
<path d="M1462 640 c-7 -11 -8 -20 -2 -20 5 0 14 9 20 20 6 11 7 20 3 20 -5 0
-14 -9 -21 -20z"/>
<path d="M6450 636 c0 -13 -5 -17 -20 -13 -21 5 -26 -3 -10 -19 5 -5 12 -75
16 -156 4 -81 11 -145 16 -142 4 3 17 23 29 45 16 32 21 65 24 157 2 70 0 109
-5 97 -4 -11 -12 -29 -16 -40 -6 -15 -9 -10 -12 25 -3 44 -22 83 -22 46z"/>
<path d="M1601 584 c0 -11 3 -14 6 -6 3 7 2 16 -1 19 -3 4 -6 -2 -5 -13z"/>
<path d="M6380 551 c0 -5 5 -13 10 -16 6 -3 10 -2 10 4 0 5 -4 13 -10 16 -5 3
-10 2 -10 -4z"/>
<path d="M7353 435 c3 -27 19 -88 36 -135 17 -47 31 -96 31 -110 1 -25 1 -25
16 -5 32 40 1 285 -35 285 -7 0 -7 -8 0 -26 14 -38 21 -107 10 -100 -5 4 -12
23 -16 44 -3 21 -15 51 -26 68 l-20 29 4 -50z"/>
<path d="M6893 428 c3 -9 1 -20 -4 -25 -5 -5 -5 -23 1 -43 13 -46 13 -63 -1
-54 -7 4 -10 1 -7 -7 3 -8 10 -13 16 -12 5 1 13 -10 16 -25 17 -73 40 -132 50
-129 17 6 25 64 19 151 -5 86 -22 129 -24 61 0 -44 3 -48 -37 48 -15 36 -42
69 -29 35z"/>
<path d="M6961 404 c0 -11 3 -14 6 -6 3 7 2 16 -1 19 -3 4 -6 -2 -5 -13z"/>
<path d="M6718 342 c-4 -30 6 -52 24 -52 9 0 1 45 -12 69 -5 9 -9 3 -12 -17z"/>
<path d="M6820 315 c0 -18 -16 -20 -23 -2 -4 9 -6 9 -6 -1 -1 -7 -6 -10 -12
-6 -7 4 -10 -1 -7 -12 2 -13 12 -19 31 -19 15 -1 32 -6 39 -13 13 -13 38 -16
38 -6 0 4 -9 22 -21 40 -22 36 -39 44 -39 19z"/>
</g>
</svg>
