<?xml version="1.0" encoding="utf-8"?>
<!-- Generator: Adobe Illustrator 26.1.0, SVG Export Plug-In . SVG Version: 6.00 Build 0)  -->
<svg version="1.1" id="Layer_1" xmlns="http://www.w3.org/2000/svg" xmlns:xlink="http://www.w3.org/1999/xlink" x="0px" y="0px"
	 viewBox="0 0 613.28 859.89" style="enable-background:new 0 0 613.28 859.89;" xml:space="preserve">
<style type="text/css">
	
		.st0{clip-path:url(#SVGID_00000137105532034706153910000004922966145541157536_);fill-rule:evenodd;clip-rule:evenodd;fill:#7985D4;}
	
		.st1{clip-path:url(#SVGID_00000137105532034706153910000004922966145541157536_);fill:none;stroke:#7985D4;stroke-width:0.5669;stroke-miterlimit:22.9256;}
	
		.st2{clip-path:url(#SVGID_00000137105532034706153910000004922966145541157536_);fill-rule:evenodd;clip-rule:evenodd;fill:#D2412E;}
	
		.st3{clip-path:url(#SVGID_00000137105532034706153910000004922966145541157536_);fill-rule:evenodd;clip-rule:evenodd;fill:#FFFFFF;}
	.st4{clip-path:url(#SVGID_00000137105532034706153910000004922966145541157536_);fill:#7985D4;}
</style>
<g>
	<defs>
		<rect id="SVGID_1_" x="-9" y="8.89" width="614" height="860"/>
	</defs>
	<clipPath id="SVGID_00000069359083659361145250000016505822372185494188_">
		<use xlink:href="#SVGID_1_"  style="overflow:visible;"/>
	</clipPath>
	
		<path style="clip-path:url(#SVGID_00000069359083659361145250000016505822372185494188_);fill-rule:evenodd;clip-rule:evenodd;fill:#7985D4;" d="
		M112.14,366.51c22.56,0,40.84,18.29,40.84,40.84c0,22.56-18.29,40.84-40.84,40.84c-22.56,0-40.84-18.29-40.84-40.84
		C71.29,384.79,89.58,366.51,112.14,366.51z M112.14,368.51c21.45,0,38.84,17.39,38.84,38.84c0,21.45-17.39,38.84-38.84,38.84
		c-21.45,0-38.84-17.39-38.84-38.84C73.3,385.9,90.69,368.51,112.14,368.51z"/>
	
		<path style="clip-path:url(#SVGID_00000069359083659361145250000016505822372185494188_);fill:none;stroke:#7985D4;stroke-width:0.5669;stroke-miterlimit:22.9256;" d="
		M112.14,366.51c22.56,0,40.84,18.29,40.84,40.84c0,22.56-18.29,40.84-40.84,40.84c-22.56,0-40.84-18.29-40.84-40.84
		C71.29,384.79,89.58,366.51,112.14,366.51z M112.14,368.51c21.45,0,38.84,17.39,38.84,38.84c0,21.45-17.39,38.84-38.84,38.84
		c-21.45,0-38.84-17.39-38.84-38.84C73.3,385.9,90.69,368.51,112.14,368.51z"/>
	
		<path style="clip-path:url(#SVGID_00000069359083659361145250000016505822372185494188_);fill-rule:evenodd;clip-rule:evenodd;fill:#7985D4;" d="
		M91.89,424.99h-9.57c-3.14-5.21-4.95-11.3-4.95-17.83c0-6.36,1.72-12.33,4.72-17.45h9.3c-6.18,4.57-8.63,13.39-7.19,20.74
		C85.26,415.76,88.32,420.9,91.89,424.99 M129.58,427.63v9.57c-5.12,3-11.08,4.72-17.45,4.72c-6.52,0-12.62-1.81-17.83-4.95v-9.43
		c1.11,1.09,2.29,2.15,3.47,3.1c1.21,0.97,2.41,1.93,3.7,2.79c2.08,1.4,5.67,3.75,8.19,4.68c0.47,0.23,0.98,0.4,1.51,0.48
		c1.9,0.3,3.01-0.35,4.55-1.15c4.47-2.32,7.66-4.47,11.51-7.7C128.03,429.08,128.82,428.37,129.58,427.63z M132.59,389.72h9.21
		c3,5.12,4.72,11.08,4.72,17.45c0,6.52-1.81,12.62-4.95,17.83h-9.49c3.52-4.05,6.4-8.89,7.55-13.87
		C141.36,403.58,138.94,394.47,132.59,389.72z M112.14,372.78c6.36,0,12.33,1.72,17.45,4.72v10.42c-5.31-2.47-11.75-2.26-16.82,0.79
		c-0.26,0.16-0.52,0.33-0.78,0.51c-0.22-0.16-0.45-0.31-0.67-0.45c-5.1-3.23-11.62-3.31-17-0.78v-10.27
		C99.52,374.59,105.62,372.78,112.14,372.78z"/>
	
		<path style="clip-path:url(#SVGID_00000069359083659361145250000016505822372185494188_);fill-rule:evenodd;clip-rule:evenodd;fill:#D2412E;" d="
		M112.19,395.56c0.58-1.02,1.96-2.23,2.98-2.85c4.4-2.64,10-2.3,14.01,0.31c4.27,2.77,7.59,9.68,5.89,17.05
		c-1.4,6.1-6.09,12.12-10.83,16.09c-3.83,3.22-6.17,4.8-10.66,7.14c-1.05,0.54-1.5,0.92-1.98,0.53c-1.67-0.48-5.96-3.23-7.51-4.28
		c-1.22-0.82-2.27-1.66-3.38-2.56c-1.43-1.16-3.27-2.87-4.55-4.25c-3.26-3.51-6.41-8.32-7.37-13.2c-1.43-7.29,1.92-14.05,6.22-16.65
		c4.05-2.46,9.55-2.86,13.8-0.18c1.06,0.67,2.39,1.78,2.96,2.84C111.93,395.74,112.09,395.69,112.19,395.56"/>
	
		<path style="clip-path:url(#SVGID_00000069359083659361145250000016505822372185494188_);fill-rule:evenodd;clip-rule:evenodd;fill:#FFFFFF;" d="
		M114.64,398.89c-1.04,0.39-1.3,1.77-1.49,3c-0.2,1.3-0.31,2.77-0.35,4.13c-0.08,2.69,1.94,5.07,4.52,3.63
		c2.35-1.31,3.24-5.88,0.07-9.25C116.95,399.94,115.61,398.53,114.64,398.89 M110.29,408.73c0.5-0.91,0.74-1.81,0.66-3.11
		c-0.12-1.86-0.23-5.58-1.45-6.53c-1.43-1.12-3.75,1.93-4.37,3.04C102.36,407.12,107.16,412.74,110.29,408.73z M122.67,404.6
		c-1.16,0.48-1.37,2.93-2.14,4.55c-0.33,0.7-0.56,0.86-0.94,1.39c-1.55,2.22-0.29,5.54,2.46,5.23c1.12-0.13,2.27-1.14,2.71-1.75
		c1.42-1.96,1.21-5.23,0.3-7.41C124.71,405.77,123.8,404.14,122.67,404.6z M100.26,404.64c-2.13,1.1-3.46,7.08-0.86,9.85
		c0.58,0.62,1.82,1.56,3.24,1.24c1.06-0.24,1.92-1.15,2.15-2.3c0.32-1.6-0.4-2.61-1.07-3.47
		C102.39,408.25,102.23,403.62,100.26,404.64z M111.87,426.2c2.58-0.02,5.45-0.45,7.39-1.57c2.37-1.38,3.21-3.57,1.85-5.8
		c-0.83-1.36-1.22-1.1-2.56-1.89c-3.1-1.83-2.29-6.19-7.44-5.79l-0.04,0.1c-1.02-0.11-2.13,0.89-2.55,1.46
		c-1.04,1.4-1.8,3.57-3.58,4.37c-1.12,0.5-1.62,0.71-2.25,1.67c-1.43,2.2-0.33,4.43,1.17,5.47c0.75,0.52,1.77,0.98,2.75,1.28
		c1.08,0.32,2.29,0.38,3.23,0.62L111.87,426.2z"/>
	<path style="clip-path:url(#SVGID_00000069359083659361145250000016505822372185494188_);fill:#7985D4;" d="M464.93,390.89v-9.92
		c0-2.29-0.76-3.27-3.05-3.27h-11.22c-2.29,0-3.16,0.98-3.16,3.27v9.92h-0.11l-4.69,0.65c-2.29,0.33-3.16,0.87-3.16,3.16v6.65
		c0,2.29,0.87,3.16,3.16,3.16h4.79v23.65c0,11.44,5.12,17,21.58,17h5.45c2.29,0,3.27-0.87,3.27-3.16v-7.74
		c0-2.29-0.98-3.27-3.27-3.27h-2.62c-4.47,0-6.97-1.2-6.97-4.79v-21.69h8.83c2.29,0,3.27-0.87,3.27-3.16v-7.41
		c0-2.29-0.98-3.05-3.27-3.05H464.93z M408.17,407.56c0-3.27,1.96-4.9,6.54-4.9c4.58,0,6.65,1.63,6.65,4.9v3.16h-13.19V407.56z
		 M437.59,406.8c0-10.35-6.43-17-22.88-17c-16.45,0-23.54,6.65-23.54,17v22.23c0,10.35,7.08,17,23.54,17
		c16.45,0,22.34-6.65,22.34-17v-0.76c0-2.29-0.87-3.16-3.16-3.16h-9.37c-2.29,0-3.16,0.87-3.16,3.16v0.11
		c0,3.27-2.07,4.79-6.65,4.79c-4.58,0-6.54-1.53-6.54-4.79v-6.54h26.48c2.07,0,2.94-0.87,2.94-2.94V406.8z M368.84,445.16
		c2.29,0,3.38-1.09,4.03-3.27l19.72-67.56c0.65-2.07-0.11-3.27-2.4-3.27h-11.77c-2.29,0-3.27,1.2-3.81,3.27l-8.28,30.51
		c-1.63,6.1-3.05,17.76-3.05,17.76s-1.09-11.66-2.72-17.76l-8.17-30.51c-0.54-2.07-1.53-3.27-3.81-3.27h-12.86
		c-2.29,0-3.05,1.2-2.4,3.27l19.72,67.56c0.65,2.18,1.74,3.27,4.03,3.27H368.84z M301.73,390.89v-9.92c0-2.29-0.76-3.27-3.05-3.27
		h-11.22c-2.29,0-3.16,0.98-3.16,3.27v9.92h-0.11l-4.69,0.65c-2.29,0.33-3.16,0.87-3.16,3.16v6.65c0,2.29,0.87,3.16,3.16,3.16h4.79
		v23.65c0,11.44,5.12,17,21.58,17h5.45c2.29,0,3.27-0.87,3.27-3.16v-7.74c0-2.29-0.98-3.27-3.27-3.27h-2.62
		c-4.47,0-6.97-1.2-6.97-4.79v-21.69h8.83c2.29,0,3.27-0.87,3.27-3.16v-7.41c0-2.29-0.98-3.05-3.27-3.05H301.73z M244.96,407.56
		c0-3.27,1.96-4.9,6.54-4.9c4.58,0,6.65,1.63,6.65,4.9v3.16h-13.19V407.56z M274.39,406.8c0-10.35-6.43-17-22.88-17
		c-16.45,0-23.54,6.65-23.54,17v22.23c0,10.35,7.08,17,23.54,17c16.45,0,22.34-6.65,22.34-17v-0.76c0-2.29-0.87-3.16-3.16-3.16
		h-9.37c-2.29,0-3.16,0.87-3.16,3.16v0.11c0,3.27-2.07,4.79-6.65,4.79c-4.58,0-6.54-1.53-6.54-4.79v-6.54h26.48
		c2.07,0,2.94-0.87,2.94-2.94V406.8z M196.59,385.77c5.34,0,9.92,2.07,9.92,7.08v5.34c0,5.01-4.58,7.08-9.92,7.08h-8.72v-19.51
		H196.59z M196.59,419.99c20.49,0,27.68-9.26,27.68-18.63v-11.66c0-9.37-7.19-18.63-27.68-18.63h-23.54c-2.29,0-3.16,0.98-3.16,3.27
		v67.56c0,2.29,0.87,3.27,3.16,3.27h11.77c2.29,0,3.05-0.98,3.05-3.27v-21.9H196.59z"/>
</g>
</svg>
