<svg id="Ebene_1" data-name="Ebene 1" xmlns="http://www.w3.org/2000/svg" width="120mm" height="76.53mm" viewBox="0 0 340.16 216.95"><defs><style>.cls-1{fill:#c0bd02;}.cls-2{fill:#1d1d1b;}</style></defs><path class="cls-1" d="M442.51,271q-.52.27-2.5,4.08c-1.31,2.55-2.92,5.69-4.8,9.42s-4,7.76-6.39,12.11-4.8,8.38-7.31,12.11a56.77,56.77,0,0,1-7.57,9.28c-2.54,2.46-5,3.69-7.24,3.69a6,6,0,0,1-4.41-1.78,12.34,12.34,0,0,1-2.7-4,52.11,52.11,0,0,1-2.7-9.88q-1-5.52-1.45-11.45t-.52-11.65q-.07-5.73-.07-10.47v-.66c0-.35-.09-.53-.26-.53s-.31.18-.4.53a3.44,3.44,0,0,1-.26.79l-3,9.68q-1.71,5.46-3.95,11.12a114.45,114.45,0,0,1-5.13,11.19,49.79,49.79,0,0,1-6.65,9.81,33,33,0,0,1-8.3,6.91,19.64,19.64,0,0,1-10.07,2.64c-.61,0-1.27,0-2-.07a6,6,0,0,1-2-.46,4.17,4.17,0,0,1-1.51-1.05,2.93,2.93,0,0,1,.13-3.69,2.31,2.31,0,0,1,1.78-.79,12.17,12.17,0,0,1,2.83.33,12.1,12.1,0,0,0,2.83.33q5.26,0,9.94-4.74a53.11,53.11,0,0,0,8.69-12.24,112.49,112.49,0,0,0,7.17-16.73q3.17-9.21,5.4-18t3.43-16.39a81.05,81.05,0,0,0,1.18-11.66c0-1.84-.09-3.66-.26-5.46a22.66,22.66,0,0,0-1.19-5.33,1.82,1.82,0,0,1-.13-.79,3.23,3.23,0,0,1,1.19-2.31,13.29,13.29,0,0,1,2.76-2,17.89,17.89,0,0,1,3.29-1.38A9.82,9.82,0,0,1,403,221a8.08,8.08,0,0,1,3.68.79c.79.35,1.4,1.3,1.84,2.83a28.6,28.6,0,0,1,.93,5.07q.25,2.76.33,5.4c0,1.75.06,3,.06,3.82q0,13.15-.33,25.93t-.33,25.94q0,.79-.06,3.69c-.05,1.93,0,3.92.13,6a44.92,44.92,0,0,0,.66,5.53c.3,1.62.81,2.43,1.51,2.43a2.1,2.1,0,0,0,1.38-.66,11.29,11.29,0,0,0,1.45-1.58c.48-.61.92-1.22,1.32-1.84s.72-1.1,1-1.45q2.9-4.61,5.39-9.28t5-9.41q3.67-7.11,7.11-14.09t6.71-14.22q1.45-3.42,3.16-6.78a28.81,28.81,0,0,0,2.5-6.91c.18-.79.35-1.67.53-2.64a21,21,0,0,1,.72-2.83,11.32,11.32,0,0,1,1.19-2.5,4.34,4.34,0,0,1,1.91-1.64,8.11,8.11,0,0,1,3.16-.66,2.33,2.33,0,0,1,2.63,1.91,18.14,18.14,0,0,1,.4,3.62,44.25,44.25,0,0,1-.4,5.92q-.39,2.9-.92,5.93-1.46,8.82-2.3,17.64t-.86,17.9c0,1,.07,2.35.2,4.15a32.58,32.58,0,0,0,.85,5.4,16.68,16.68,0,0,0,1.85,4.67,3.57,3.57,0,0,0,3.16,2,7.89,7.89,0,0,0,5.06-1.84,23.73,23.73,0,0,0,4.22-4.42,62.44,62.44,0,0,0,3.55-5.33q1.65-2.76,3-4.61a9.63,9.63,0,0,1,1.25-1.51,2.34,2.34,0,0,1,3.16-.2,1.58,1.58,0,0,1,.72,1.32,4.42,4.42,0,0,1-.33,1.71c-.22.53-.46,1.05-.72,1.58a43.93,43.93,0,0,1-3.62,6.25,51.33,51.33,0,0,1-5.53,6.85,41.94,41.94,0,0,1-6.45,5.53,11.55,11.55,0,0,1-6.52,2.3,8.18,8.18,0,0,1-5.73-2.1,16.35,16.35,0,0,1-3.82-5.47,35.41,35.41,0,0,1-2.37-7.57,81.54,81.54,0,0,1-1.25-8.36c-.26-2.76-.42-5.35-.46-7.76s-.06-4.41-.06-6A.54.54,0,0,0,442.51,271Z" transform="translate(-250.87 -189.16)"/><path class="cls-1" d="M531.19,292.45c-.75,1.05-1.34,1.93-1.78,2.63q-1.85,2.51-4.48,5.8a58.76,58.76,0,0,1-5.73,6.19,34.43,34.43,0,0,1-6.58,4.87,14,14,0,0,1-6.91,2,6.61,6.61,0,0,1-5.27-2.3,16.32,16.32,0,0,1-3-5.53,28.27,28.27,0,0,1-1.31-6.72,44.81,44.81,0,0,1-.13-5.86q-1.32,2-3.36,4.94a55.37,55.37,0,0,1-4.54,5.73,35.54,35.54,0,0,1-5.2,4.74,9.08,9.08,0,0,1-5.34,2,5.62,5.62,0,0,1-3.95-1.45,9.61,9.61,0,0,1-2.43-3.55A18.7,18.7,0,0,1,470,301.4a30.87,30.87,0,0,1-.33-4.21,33.54,33.54,0,0,1,2.51-11.72A55.26,55.26,0,0,1,478.79,273a43.19,43.19,0,0,1,9.47-9.81,18.49,18.49,0,0,1,11.13-4,4.37,4.37,0,0,1,2.9,1.32,3.78,3.78,0,0,1,1.44,2.76,1.22,1.22,0,0,1-.39,1,4.4,4.4,0,0,1-.92.59q-3.56,2.11-6.78,4.41a43,43,0,0,0-6.12,5.34,42.29,42.29,0,0,0-8.17,11.78,32.87,32.87,0,0,0-3,14,9.22,9.22,0,0,0,.27,2,1.35,1.35,0,0,0,1.45,1.18,5.13,5.13,0,0,0,3.29-1.78,34.37,34.37,0,0,0,3.82-4.47,63.67,63.67,0,0,0,3.88-6.06q1.91-3.36,3.62-6.52t3-5.85c.84-1.8,1.47-3.14,1.91-4a13.38,13.38,0,0,1,1.65-2.7A3.4,3.4,0,0,1,504,271a5.33,5.33,0,0,1,2,.4,1.63,1.63,0,0,1,1,1.71,11.12,11.12,0,0,1-.93,3.81c-.61,1.58-1.09,2.86-1.44,3.82a41.11,41.11,0,0,0-1.52,7.31,61.67,61.67,0,0,0-.46,7.31c0,.7,0,1.75.07,3.16a27.69,27.69,0,0,0,.46,4.28,13.33,13.33,0,0,0,1.25,3.81,2.65,2.65,0,0,0,2.43,1.65,9.22,9.22,0,0,0,5.27-2.11,44.65,44.65,0,0,0,5.66-4.93,70.2,70.2,0,0,0,5.14-5.86q2.37-3,3.55-4.87c.44-.71.92-1.43,1.45-2.18a2.6,2.6,0,0,1,2.24-1.12c1.4,0,2.1.84,2.1,2.51A5,5,0,0,1,531.19,292.45Z" transform="translate(-250.87 -189.16)"/><path class="cls-1" d="M558.5,290.48c.62,1.75,1.34,3.53,2.18,5.33a29.23,29.23,0,0,0,2.7,4.74c1,1.36,1.93,2,2.89,2a10.84,10.84,0,0,0,5.86-1.78,30.51,30.51,0,0,0,5.4-4.34,41.1,41.1,0,0,0,4.61-5.53,45.82,45.82,0,0,0,3.22-5.34,16.9,16.9,0,0,1,1.45-2.3,2.72,2.72,0,0,1,2.24-1.25,1.59,1.59,0,0,1,1.51.86,3.65,3.65,0,0,1,.46,1.77,3.39,3.39,0,0,1-.33,1.39c-.21.48-.41.9-.59,1.25a63,63,0,0,1-4.28,7.37,54.31,54.31,0,0,1-6.18,7.7,39.92,39.92,0,0,1-7.44,6.12,14.67,14.67,0,0,1-7.9,2.5,9,9,0,0,1-4.94-1.38,14.58,14.58,0,0,1-3.82-3.55,29.27,29.27,0,0,1-2.89-4.68c-.84-1.66-1.56-3.2-2.18-4.6l-11.85,18.3a2.52,2.52,0,0,1-2.23,1.18,3.77,3.77,0,0,1-2.18-.79,2.36,2.36,0,0,1-1.12-2c0-.62.68-2,2-4.22s2.9-4.52,4.61-7,3.4-4.81,5.07-7.05,2.77-3.75,3.29-4.54q-1.05-3.94-2.24-7.77t-2.23-7.77c-.09-.35-.29-1-.6-1.84s-.68-1.32-1.12-1.32-1.33,1.1-2.43,3.29-2.28,4.61-3.56,7.25-2.52,5-3.75,7.24-2.28,3.29-3.16,3.29q-2.1,0-2.1-2a5.94,5.94,0,0,1,.92-3q.92-1.85,2.63-5.86t3.82-8a46,46,0,0,1,4.47-7.05q2.37-3,4.61-3a6.33,6.33,0,0,1,3.29.79A8.09,8.09,0,0,1,549,267a15.37,15.37,0,0,1,1.71,2.9l1.38,3c.53,1.31,1.08,2.63,1.65,3.94a41.41,41.41,0,0,1,1.51,4.09q3.16-4.61,6.12-9.35t6-9.35a4.41,4.41,0,0,1,.92-1.12,1.91,1.91,0,0,1,1.31-.46,1.75,1.75,0,0,1,1.45.66,2.28,2.28,0,0,1,.53,1.45,4,4,0,0,1-.26,1.45,10,10,0,0,1-.66,1.31q-3,5.54-6.52,10.67t-6.91,10.4C557.45,287.45,557.89,288.72,558.5,290.48Z" transform="translate(-250.87 -189.16)"/><path class="cls-2" d="M374.09,344h7.25v1.29h-5.71v4.23h4.74v1.31h-4.74v6h-1.54Z" transform="translate(-250.87 -189.16)"/><path class="cls-2" d="M392.18,350.34c0-3.44,1.83-6.64,5.87-6.64s5.91,3.05,5.91,6.62-1.84,6.77-5.91,6.77S392.18,353.91,392.18,350.34Zm10.11,0c0-3.07-1.4-5.26-4.24-5.26s-4.2,2.38-4.2,5.28c0,3.05,1.35,5.41,4.2,5.41S402.29,353.43,402.29,350.32Z" transform="translate(-250.87 -189.16)"/><path class="cls-2" d="M416,352.56V344h1.54v8.34a3.08,3.08,0,0,0,3.43,3.42c2.24,0,3.3-1.23,3.3-3.42V344h1.53v8.59c0,2.92-2,4.53-4.89,4.53S416,355.59,416,352.56Z" transform="translate(-250.87 -189.16)"/><path class="cls-2" d="M438.51,344h1.75l6.77,9.28V344h1.53v12.85h-.88l-7.63-10.47v10.47h-1.54Z" transform="translate(-250.87 -189.16)"/><path class="cls-2" d="M461.42,344h4.1c4.83,0,6.54,2.78,6.54,6.41,0,3.31-1.84,6.44-6.39,6.44h-4.25ZM463,355.54h2.24c3.71,0,5.24-2.34,5.24-5.16,0-3.07-1.5-5.12-5.1-5.12H463Z" transform="translate(-250.87 -189.16)"/><path class="cls-2" d="M490.73,353.14h-5l-1.4,3.68h-1.59l5.1-12.85h1l5,12.85h-1.72Zm-4.53-1.31h4.05l-2-5.33Z" transform="translate(-250.87 -189.16)"/><path class="cls-2" d="M507.49,345.26h-4.35V344h10.24v1.29H509v11.56h-1.54Z" transform="translate(-250.87 -189.16)"/><path class="cls-2" d="M525.47,344H527v12.85h-1.53Z" transform="translate(-250.87 -189.16)"/><path class="cls-2" d="M539.28,350.34c0-3.44,1.82-6.64,5.87-6.64s5.91,3.05,5.91,6.62-1.84,6.77-5.91,6.77S539.28,353.91,539.28,350.34Zm10.11,0c0-3.07-1.4-5.26-4.24-5.26s-4.2,2.38-4.2,5.28c0,3.05,1.34,5.41,4.2,5.41S549.39,353.43,549.39,350.32Z" transform="translate(-250.87 -189.16)"/><path class="cls-2" d="M563.34,344h1.74l6.77,9.28V344h1.54v12.85h-.89l-7.63-10.47v10.47h-1.53Z" transform="translate(-250.87 -189.16)"/><path class="cls-2" d="M342.58,190.33c-2.71-3.08-9.29.63-14.55,3.1s-9.12-.78-12.68-1.24A22,22,0,0,0,303,193.43a34.87,34.87,0,0,0-7.43,4.32c-3.86-4.47-6-2.23-12.43,5.28-4.26,5-7.2,10.88-3.72,10.88s3.91-2.42,4.94-2.88c2.67-1.19.81,16.53-2.37,30l.56.36c1.14.72,10.31,6.16,26.79,6.16a82.85,82.85,0,0,0,12.85-1l.25,0a39.93,39.93,0,0,1,.21-5.63c-3.71-2.48-7.11-7.72-9.59-8.95a11.36,11.36,0,0,0-5.1-1.08c1.23-2.47,4.94-4,8.35-.62,4.38,4.36,11.92,11.88,13.61,12s2.78-3.09,3.4-7.42-3.09-12-3.09-12,1.55-4.32,13.93-18.22C348,200.19,344.79,192.85,342.58,190.33Z" transform="translate(-250.87 -189.16)"/><path class="cls-2" d="M360.8,379.1c-1-.18-3.57,5.81-10.4,9.75-5.82,3.36-16.07,4.44-23,1.26,3.15.31,21.13-2.83,24.29-25.8,3.51-25.57-19.87-26.13-20.51-29.9-1.82-10.91,2.85-19,3.47-34.46s-2.81-27.29-7.89-35.4a24.35,24.35,0,0,1-2.44-5.39l-.14,0a77.64,77.64,0,0,1-16,1.64c-11.3,0-21.33-2.38-29.85-7-5,13.85-14.69,29-15.58,47.87-.94,20.45,4.17,26.79,3.15,34.93-1.12,9-21.83,17.34-12.65,37.87l1.52,3a49.28,49.28,0,0,0,3.25,5.05c9.15,12.59,26.77,11.48,29,12,6,1.25,6.94,5.66,17.34,8.81s26.86,4.8,40.69-1.57C361.43,394.2,362.7,379.41,360.8,379.1Z" transform="translate(-250.87 -189.16)"/><path class="cls-1" d="M324.37,256.28s-.29.08-.83.2c-4.44,1-26,5-44.36-5.34-.44-.24-.88-.5-1.33-.76L281,243.7l.19.12c1.76,1.1,16.09,9.39,41.4,5.42l.2,0Z" transform="translate(-250.87 -189.16)"/></svg>