<?xml version="1.0" encoding="utf-8"?>
<!-- Generator: Adobe Illustrator 22.0.1, SVG Export Plug-In . SVG Version: 6.00 Build 0)  -->
<svg version="1.1" id="Ebene_1" xmlns="http://www.w3.org/2000/svg" xmlns:xlink="http://www.w3.org/1999/xlink" x="0px" y="0px"
	 width="425.2px" height="419.5px" viewBox="0 0 425.2 419.5" style="enable-background:new 0 0 425.2 419.5;" xml:space="preserve"
	>
<style type="text/css">
	.st0{fill:#00A7E7;}
	.st1{fill:#004F9F;}
</style>
<g>
	<g>
		<path class="st0" d="M270.6,125.4c8.7,29.6,1.4,42.9-6.6,63.6C300,150.8,270.6,125.4,270.6,125.4z"/>
		<path class="st0" d="M155.8,226.4c-9-1.7-18-4.6-26.6-9c-26.2-12-24.6-33.6-23.5-42.9c0,0,6.4,3.4,29.6,2.9s53.4-12.3,71.3-23.4
			c17.9-11.1,27.5-25.4,66.1-37.5c7.2,2,29.6,8.4,27.3,39.2c-1.4,18.7-15.5,35.4-26.2,45.6c21.8,0.9,40.6,6.1,54,11.3
			c14.2-21.6,22.5-47.5,22.5-75.2C350.3,61.5,288.8,0,212.8,0S75.3,61.5,75.3,137.4c0,34.2,12.5,65.3,33.2,89.3
			C121.2,227.8,137.7,228.3,155.8,226.4z M165.2,156.1c2.3-4.9,4.2-8.4,5.2-13.7c0.9-4.1,2.4-6.4,4.4-9.7c3-4.7,4.6-10,7-15
			c2.3-4.6,4.6-10.1,7.3-14.4c3.6-5.7,9-9.9,9.9-16.7c0.4-3.7,1.9-6.9,2-10.4c0.3-3.6-1.4-6.1-1-9.4c0.6-3.6,3.1-6.3-1.4-5.6
			c-2.3,0.3-5.3,4.3-7.9,2.3c-0.9-0.6-2.9-15.2-2.9-16.6c0-3.6,1.9-5.7,5.3-7.1c2.6-1.1,5.4-0.4,8.2-1c2.4-0.4,4.4-1.9,6.7-2.4
			c2.3-0.6,10.2-0.4,7.6,4.3c4.7,0.1,10.2-0.3,14.7,1.1c2.7,0.9,5.7,4.6,8.7,4.7c3.6,0.1,3.6-2.6,7.9-0.3
			c4.9,2.7,11.4,8.7,13.2,13.7c1.4,4.3,1.9,5.7-0.6,9.1c-2.1,3-3,4.1-4.2,8.1c-4.3-2.3-6.9-3.7-7.9-8.6c-4.7,1.9-3.6,5.9-5.6,9.7
			c-2.7,5.4-5.2,9.4-5.6,15.6c-0.4,5.3-0.7,7.4,2,12c2.6,4.4,4.6,7.6,4.7,12.6c-12.9,6.3-21.5,12.9-29.2,18.9
			c-4.3,3.3-8.4,6.4-12.9,9.3c-9.6,5.9-23.2,12.1-37.2,16.4C163.6,160.8,163.9,158.7,165.2,156.1z"/>
		<path class="st0" d="M237.1,221c-22.8,4.7-54.8,19.2-88.9,17.6c-13.7-0.7-23.2-1.3-31.5-2.6c24.8,24,58.5,38.7,95.7,38.7
			c45.9,0,86.6-22.6,111.6-57.2C273.5,209.5,257,216.8,237.1,221z"/>
	</g>
	<g>
		<path class="st0" d="M36.8,384.1l1.7,9.9c0,1.3,0.6,4.4,1.6,9.4c1,5,1.6,8.3,1.6,9.9v0.1c0,2.3-0.9,3.9-2.7,4.6
			c-2.3,0-4-0.4-5.2-1.1c-1.3-0.7-1.9-2.1-1.9-4.1c0-4.6-0.7-11-2.3-19.7l-15.7-2.3c-1,3.6-1.7,7.4-2.3,11.6c-0.6,4.1-1,7.3-1.4,9.1
			c-1,4-2.7,5.9-5.2,5.9c-1.3,0-2.4-0.4-3.4-1.1c-1-0.9-1.6-1.9-1.6-3l0.4-1.4c7.2-27.6,12.5-54.6,16-80.8c0.1-0.7,0.3-2.9,0.4-6.4
			c0.6-7.7,1.6-12.7,3-14.9h5.4c1.4,0,2.7,0.3,3.9,1c1.1,0.7,1.6,1.7,1.6,3c0,8.1,1.1,20.2,3.3,36C35.8,365.5,36.8,377.1,36.8,384.1
			z M28.5,387.2c-0.3-1.6-0.4-4.3-0.4-8.1s-0.3-8.7-0.7-14.4c-0.4-5.7-1.1-12.4-1.9-20c-0.9-7.6-1.4-13.2-1.7-16.6
			c-4.9,26.7-8,45.6-9.3,56.5C16.2,385.8,20.9,386.7,28.5,387.2z"/>
		<path class="st0" d="M57.8,363.1l-0.1,17.3c0,14,1,25.2,3,33.2l-1.9,4.3h-4.4l-2.1-2.3c0.1-4.7,0.1-10.1,0.1-16
			c0-6-0.4-18.6-1.4-38c-0.9-19.4-1.4-34-1.4-43.6c0-5,1.7-7.6,5.3-7.6c5.6,0,10.2,1.4,14,4.3c3.9,2.9,5.7,7,5.7,12.4v11.1
			c0,3-0.6,5.9-1.7,8.4c-1.1,2.6-2.4,5.1-4,8c-1.6,2.9-2.3,4.3-2.4,4.6c0.6,2.6,1.6,7.7,3,15.3c3.1,16.6,6.6,28.4,10.3,35.7
			c1.1,2.1,1.6,3.7,1.6,4.9c0,1.1-0.3,2.1-1,3c-0.7,0.9-1.6,1.1-2.6,1.1c-2.3,0-4.4-2.6-6.4-7.7c-2-5.1-3.7-10.7-5-17
			c-3.7-19-6.2-29.4-6.9-31.4L57.8,363.1L57.8,363.1z M58.4,316l-0.6,2.3c0,4.3,0.1,10.6,0.3,18.9c0.1,8.3,0.3,14.2,0.3,17.9
			c2.4-1.3,4.4-4.7,6-10.1c1.6-5.4,2.3-9.7,2.3-12.6c0-2.9-0.1-5-0.3-6.4c-0.1-1.4-0.4-2.9-1-4.6C64.5,318,62.1,316.2,58.4,316z"/>
		<path class="st0" d="M87.7,377.9l-0.1-9.3v-3.9c0-15.7,0.7-26.6,2.3-32.7c1.9-7.6,4.4-12.9,7.7-15.7c4.6-4,10.2-6,17.2-6
			c1.7,0,2.9,0.4,3.7,1.1s1.1,1.7,1.1,2.9s-0.3,2-1,2.9c-0.7,0.9-1.4,1.3-2.4,1.4h-7.4c-2.1,0-4,1.4-5.7,4.1
			c-1.6,2.9-2.7,6.3-3.4,10.3c-1.3,7.7-2,14-2,19v0.7l-0.7,30.7c0,6.4,0.3,11,1,13.4c0.7,2.4,1.4,4.4,2.1,6c0.7,1.6,1.7,2.9,2.7,3.7
			c2.4,2.3,5.4,3.4,9.2,3.4c1.3,0,2.4-0.4,3.4-1.4c1.3,0,2.4,0.3,3.3,0.9c1,0.6,1.4,1.4,1.4,2.7c0,4.1-3,6.3-8.9,6.3
			c-2.4,0-4.9-0.3-7.6-1s-4.6-1.4-5.9-2.3C91.3,410.7,87.7,398.2,87.7,377.9z"/>
		<path class="st0" d="M138.4,320.5l-0.6,39.7c1.9,0.6,4.9,0.7,8.7,0.7h5.7c0.3-0.4,0.4-2.1,0.4-5.1s-0.3-9.4-1-19.4
			c-0.7-10-1-17.6-1-22.7c0-1.1,0.4-2.1,1.4-3c1-0.9,1.9-1.1,2.7-1.1s1.6,0.1,2,0.3c0.6,0.1,1.1,0.4,1.7,0.6
			c0.6,0.3,1.1,0.4,1.4,0.6c0,13.9,0.6,34,1.6,60.5c1,26.6,1.6,40.2,1.6,41.2c0,0.9-0.6,1.7-1.7,2.6c-1.1,0.9-2.4,1.3-3.7,1.3
			s-2.4-1-3.3-3c-0.9-2-1.4-5-1.7-9s-0.4-7.4-0.6-10.3c0-1.3,0-2.7,0-4.3c0-2.1,0-4.7,0.1-7.4c0.1-4.9,0.1-7.7,0.1-8.6v-0.6l0.3-4.6
			l-1-1.4v-0.1c-0.9,0.1-1.9,0.3-2.9,0.3l-10.3-1.4v18.3l1,26.2c0,1.6-0.4,2.9-1.1,4s-1.9,1.7-3.3,1.7c-2.1,0-3.6-2-4.4-5.9
			s-1.1-9.1-1.1-15.9l0.4-24.3c0-5-0.1-7.9-0.3-8.3v-0.7c0.4-5.6,0.6-8.7,0.6-9.3l-1.1-35.9c0-1.3,0.4-2.3,1.3-3.3
			c0.9-1,2-1.4,3.1-1.4C136.7,310.9,138.4,314.2,138.4,320.5z"/>
		<path class="st0" d="M174.6,335.9l-0.9-13.4c0-7.6,2.3-11.3,6.7-11.3c2.9,0,6.7,0.7,11.7,2c4.9,1.3,7.4,3,7.4,5.1s-1.6,3.9-4.7,5
			c-4.9-1.7-9-2.7-12-3c0.1,2.3,0.3,4.6,0.3,6.9l-0.7,22.9c0,0.1,0.1,1,0.4,2.4l5.7-0.3c5.2,0,7.7,1.4,7.7,4.3c0,1.1-0.4,2.1-1.4,3
			c-1,0.9-2.1,1.3-3.6,1.3c-1.4,0-3-0.1-4.6-0.3h-4c0.3,4,0.4,8,0.4,12l-0.7,28.9c0,6,0.1,9,0.3,9l11.7-0.4c4,0,6,1.3,6,3.9
			c0,1.6-0.7,2.7-2.1,3.4c-1.4,0.7-3,1.1-4.7,1.1h-13.5c-1.4,0-2.7-0.4-3.9-1.4c-1.1-1-1.7-2.1-1.9-3.4v-4.1l-1-26.9L174.6,335.9z"
			/>
		<path class="st1" d="M224.3,370.6l1.4-44.6c0-1.1,0.4-2,1.4-2.6c1-0.6,1.9-1,2.7-1l2.4,2.9v7.6c0,16.6-0.1,28.9-0.3,37l4.6-0.4
			c3.1,0,4.7,1.1,4.7,3.4c0,2.6-2.1,3.9-6.4,3.9c-1.7,0-2.6,0.4-2.6,1.4c0,3.6,0.1,8.6,0.4,14.7c0.3,6.3,0.7,10,1.1,11.1
			c-0.1,1.3-0.3,2.4-0.3,3.4s0.3,2,0.7,2.7v2.9c0,4-1.3,6-3.7,6c-1.6,0-2.9-0.9-3.7-2.4c-0.9-1.7-1.3-3.3-1.3-5v-0.6
			c0.6-2,0.9-3.9,0.9-5.7l-1.1-15.4l0.1-6.9c0-1.9-0.1-3.4-0.3-4.9l-8.7,0.9v0.1c-2,0-4-0.9-6.3-2.6c0-2.4,0.3-4.4,0.7-6.1
			c-0.4-2.4-0.7-5.6-0.7-9c0-3.6,0.4-9,1.1-16.3c0.9-7.3,1.1-12.7,1.1-16.2v-29.4c0-1,0.1-1.9,0.6-2.3c0.4-0.6,1.1-0.7,2.4-0.7
			c1.3,0,2.4,0.4,3.3,1.1c1,0.7,1.4,1.7,1.4,2.9l-0.7,12.4l-0.1,2.9c0,1.1,0.1,2,0.3,2.9v0.6c0.3,2.9,0.4,6,0.4,9.7
			c0,3.7-0.4,10-1.1,19c-0.7,9-1.1,14.9-1.1,17.7s0.1,4.9,0.3,6C220.3,371.5,222.3,371.2,224.3,370.6z"/>
		<path class="st0" d="M252.2,396.5l0.4-50.2c0-3.4-0.3-8.7-1-15.7c-0.6-7-1-11.4-1-13.4c0-1.9,0.6-3.4,1.9-4.4
			c1.1-1,2.4-1.6,3.9-1.6c11,0,19.9,6.4,26.8,19.2c4,7.3,5.9,15,5.9,23.2l-0.3,8v8.9c0,10.7-0.4,17.9-1.4,21.4c-1,3.6-2,6.6-3,9
			c-1,2.4-2.3,4.6-3.7,6.4c-3.4,4.3-7.6,7.7-12.7,10.3h-11.6C253.6,417.2,252.2,410.4,252.2,396.5z M263.3,405.4v3.9
			c9.3,0,14.7-9.3,16.6-28c0.4-4.3,0.6-8.4,0.6-12.4c0-32-6.2-48.7-18.6-50.3c-0.7,4.1-1.1,10-1.1,17.3s0.4,18.9,1.1,34.4
			C262.9,385.8,263.3,397.5,263.3,405.4z"/>
		<path class="st0" d="M298,367.6l0.1-6c0-0.6-0.1-0.7-0.3-0.7v-2.9c0-16.7,1-28.6,2.9-35.6c1.6-6,3.1-9.6,4.7-11
			c1.6-1.4,3-2.1,4.4-2.1c12.3,0,20.9,6.3,25.6,18.7c2.7,7.1,4,16,4,26.4v1.1l0.3,18c0,30.6-7.2,45.9-21.3,45.9
			c-5.9,0-10.3-3.3-13.5-9.7c-3-6.3-4.7-12.3-5.4-18.3C298.5,382.2,298,374.4,298,367.6z M307.4,345.9l-0.7,14.7
			c0,15.4,1.3,28.9,3.7,40.3c2.7,6.7,5.2,10.6,7.6,11.9c1.9,0,3.7-0.7,5.2-2.3c1.6-1.6,2.9-3.6,3.7-6.3c0.9-2.6,1.7-5.4,2.3-8.3
			s1-5.9,1.3-9.1c0.6-5.7,0.7-10.4,0.7-14.4c0-4-0.3-10.1-1-18.3c-0.7-8.3-1-14.4-1-18.4v-2.9c-0.1-3.9-1.4-7.3-3.9-10.4
			c-2.4-3.1-5.6-4.6-9.3-4.6c-3.6,0-6,2-7.3,6.1c-1,3.4-1.4,7.7-1.4,12.7L307.4,345.9z"/>
		<path class="st0" d="M388.6,384.4l0.7,16.9c0,5.3-1.9,9.3-5.4,12.1c-3.7,2.9-7.9,4.3-12.9,4.3c-7.4,0-12.7-2.7-16-8.3
			c-2.4-3.9-3.9-7.6-4.6-11c-0.6-3.4-1-6.1-1.3-8c-0.3-1.9-0.4-4.4-0.6-7.6c-0.1-4.4-0.3-8-0.3-10.7v-6.9c0-15,0.4-24.4,1.3-28.4
			c0.9-4,1.9-7.7,3-11.1c1.1-3.4,2.6-6,4.2-8c4-4.6,8.6-6.9,13.9-6.9s7.9,1.3,7.9,4c0,1.3-0.6,2.3-1.6,3c-1,0.9-2.1,1.1-3.4,1.1
			l-3.3-0.4c-3.7,0-6.4,3.6-8.3,10.9c-2.7,10.4-4,22.9-4,37.6c0,10,0.3,16.9,1,20.7c0.7,3.9,1.4,6.9,2.1,9.4
			c0.7,2.6,1.6,4.7,2.7,6.3c2.4,3.7,5.6,5.6,9.4,5.6c5.2,0,7.7-8.4,7.7-25.3v-7.3c-0.7-0.4-2-0.6-3.7-0.6l-3.1,0.1
			c-3.7,0-5.6-1.3-5.6-3.7c0-1.6,0.6-2.7,1.6-3.4s2.3-1.1,3.9-1.1v0.1h2.1c9.6,0,14.3,1.6,14.3,4.9L388.6,384.4z"/>
		<path class="st0" d="M400,409.7l6.6,1.1c2,0,3.7-0.9,5.3-2.7c1.6-1.7,2.6-4,3.3-6.6c1.4-5.1,2.1-9.6,2.1-13.4s-0.7-7.9-2-11.6
			c-1.3-3.9-2.9-7.4-4.7-10.7c-1.9-3.3-3.7-6.7-5.6-10c-4.4-8.1-6.7-16-6.7-23.9c0-4.7,0.9-9,2.4-12.7c3-6.9,7-10.3,12-10.3
			c1.9,0,3.6,0.6,5.3,1.9c1.7,1.1,2.6,2.4,2.6,3.9c0,2.4-1.3,3.7-3.9,3.7c-1.1,0-2.3-0.3-3.3-1c-3.4,0.1-5.7,3.9-6.9,11.3
			c-0.3,1.6-0.4,3.4-0.4,5.6s0.4,4.9,1.4,8c1,3.1,2.1,6,3.6,8.4c1.4,2.4,3,5.1,4.6,8.1c1.6,3,3.1,5.9,4.6,8.7
			c3.3,6.4,5,13.9,4.9,22.3c0,6.4-1.4,12.6-4.4,18.4c-1.4,2.9-3.6,5.3-6.2,7.1c-2.7,1.9-5.7,2.9-9.2,2.9v0.4
			c-4.3-0.6-6.7-2.7-7.2-6.1L400,409.7z"/>
	</g>
</g>
</svg>
