<?xml version="1.0" encoding="iso-8859-1"?>
<!-- Uploaded to: SVG Repo, www.svgrepo.com, Generator: SVG Repo Mixer Tools -->
<svg fill="#fff" height="800px" width="800px" version="1.1" id="Layer_1" xmlns="http://www.w3.org/2000/svg" xmlns:xlink="http://www.w3.org/1999/xlink" 
	 viewBox="0 0 512 512" xml:space="preserve">
<g>
	<g>
		<path d="M152.342,447.806c-1.952-3.863-6.667-5.412-10.527-3.459c-0.67,0.338-6.73,3.521-13.264,10.935
			c-2.86,3.247-2.548,8.198,0.698,11.059c1.49,1.312,3.337,1.957,5.177,1.957c2.172,0,4.333-0.897,5.881-2.654
			c4.44-5.038,8.447-7.24,8.633-7.339C152.761,456.335,154.284,451.649,152.342,447.806z"/>
	</g>
</g>
<g>
	<g>
		<path d="M208.063,193.001h-7.375c-4.327,0-7.835,3.508-7.835,7.835c0,4.327,3.508,7.835,7.835,7.835h7.375
			c4.327,0,7.835-3.508,7.835-7.835C215.898,196.509,212.39,193.001,208.063,193.001z"/>
	</g>
</g>
<g>
	<g>
		<path d="M311.313,193.001h-7.375c-4.328,0-7.835,3.508-7.835,7.835c0,4.328,3.507,7.835,7.835,7.835h7.375
			c4.328,0,7.835-3.508,7.835-7.835C319.148,196.509,315.641,193.001,311.313,193.001z"/>
	</g>
</g>
<g>
	<g>
		<path d="M436.394,135.447l-6.005-8.542c-0.121-0.172-0.25-0.341-0.384-0.503c-42.547-51.189-100.318-71.478-104.553-72.915
			c-4.12-2.204-8.37-4.137-12.671-5.723l-17.653-6.51c-12.568-4.636-25.734-6.986-39.13-6.986c-13.396,0-26.561,2.351-39.13,6.986
			l-17.654,6.51c-4.3,1.586-8.552,3.518-12.673,5.723c-4.247,1.441-62.009,21.731-104.551,72.914
			c-0.135,0.162-0.263,0.33-0.384,0.503l-6.005,8.542c-11.995,17.066-18.336,37.111-18.336,57.971
			c0,26.457,10.175,51.458,28.652,70.397l0.891,0.912c10.4,10.66,17.441,24.013,20.362,38.616l1.735,8.677
			c1.308,6.535,7.105,11.28,13.784,11.28h0.002c3.806,0,7.371-1.516,10.039-4.267c1.981-2.043,3.865-4.157,5.661-6.328
			c1.878,6.906,4.094,13.714,6.658,20.358l4.323,11.203c8.421,21.827,22.596,41.004,40.993,55.459
			c14.688,11.54,33.064,17.895,51.742,17.895h27.784c18.68,0,37.055-6.355,51.743-17.895c18.396-14.455,32.572-33.633,40.993-55.46
			l4.322-11.203c2.564-6.644,4.78-13.451,6.658-20.358c1.796,2.172,3.68,4.285,5.661,6.329c2.669,2.752,6.235,4.267,10.039,4.267
			c6.682,0,12.477-4.745,13.785-11.281l1.735-8.676c2.92-14.602,9.961-27.955,20.358-38.613l0.893-0.915
			c18.475-18.938,28.651-43.939,28.651-70.396C454.73,172.559,448.39,152.514,436.394,135.447z M132.826,151.596
			c0.005,0.35,0.01,0.699,0.019,1.049c0.022,0.843,0.055,1.685,0.097,2.528c0.01,0.2,0.015,0.399,0.026,0.599
			c0.057,1.035,0.133,2.071,0.221,3.105c0.024,0.285,0.055,0.568,0.082,0.854c0.072,0.765,0.15,1.527,0.239,2.291
			c0.041,0.352,0.085,0.703,0.13,1.055c0.093,0.736,0.196,1.472,0.305,2.207c0.047,0.315,0.091,0.631,0.141,0.946
			c0.164,1.037,0.339,2.073,0.536,3.107c0.178,0.936,0.368,1.871,0.568,2.805l9.703,44.938c0.103,0.481,0.196,0.963,0.292,1.445
			c1.15,5.786,1.74,11.696,1.74,17.593v9.206c0,1.217-0.036,2.429-0.084,3.639c-0.018,0.435-0.04,0.87-0.064,1.305
			c-0.04,0.743-0.095,1.482-0.153,2.222c-1.048,13.014-4.92,25.743-11.38,37.182c-0.103,0.183-0.196,0.37-0.285,0.56
			c-3.184,5.533-6.956,10.763-11.32,15.585l-1.109-5.546c-3.516-17.579-11.992-33.653-24.511-46.487l-0.889-0.911
			c-15.604-15.995-24.198-37.109-24.198-59.454c0.003-17.616,5.358-34.546,15.489-48.959l5.821-8.28
			c18.414-22.081,40.231-38.119,58.546-49.042c-0.069,0.098-0.134,0.197-0.202,0.296c-0.181,0.259-0.355,0.521-0.534,0.781
			c-0.422,0.617-0.839,1.238-1.247,1.864c-0.2,0.305-0.397,0.61-0.593,0.916c-0.401,0.627-0.795,1.258-1.184,1.892
			c-0.165,0.271-0.334,0.54-0.497,0.812c-0.535,0.891-1.06,1.787-1.569,2.692c-0.072,0.128-0.14,0.258-0.212,0.387
			c-0.439,0.787-0.867,1.577-1.286,2.372c-0.162,0.308-0.32,0.618-0.478,0.928c-0.327,0.635-0.648,1.273-0.962,1.915
			c-0.161,0.329-0.323,0.658-0.481,0.988c-0.331,0.694-0.654,1.39-0.971,2.09c-0.116,0.256-0.235,0.509-0.349,0.766
			c-0.417,0.94-0.821,1.886-1.211,2.836c-0.1,0.245-0.195,0.493-0.295,0.74c-0.29,0.722-0.576,1.447-0.85,2.175
			c-0.13,0.344-0.256,0.69-0.383,1.034c-0.241,0.66-0.477,1.321-0.706,1.986c-0.117,0.338-0.234,0.675-0.348,1.014
			c-0.268,0.803-0.527,1.609-0.776,2.417c-0.057,0.185-0.119,0.369-0.176,0.555c-0.297,0.981-0.578,1.965-0.847,2.953
			c-0.084,0.307-0.162,0.616-0.242,0.925c-0.185,0.704-0.366,1.409-0.537,2.116c-0.088,0.362-0.172,0.723-0.256,1.084
			c-0.161,0.696-0.314,1.394-0.462,2.092c-0.069,0.328-0.141,0.656-0.208,0.985c-0.202,1.005-0.394,2.011-0.567,3.02
			c-0.019,0.108-0.033,0.216-0.051,0.324c-0.155,0.914-0.296,1.83-0.427,2.747c-0.048,0.342-0.092,0.683-0.138,1.025
			c-0.094,0.703-0.181,1.407-0.26,2.112c-0.041,0.364-0.081,0.727-0.119,1.092c-0.077,0.75-0.144,1.501-0.205,2.252
			c-0.023,0.288-0.051,0.576-0.072,0.864c-0.075,1.025-0.136,2.051-0.181,3.078c-0.01,0.233-0.015,0.466-0.023,0.699
			c-0.03,0.809-0.052,1.617-0.065,2.426c-0.005,0.354-0.006,0.708-0.007,1.063C132.81,150.165,132.814,150.88,132.826,151.596z
			 M269.893,401.951h-27.785c-6.474,0-12.9-0.948-19.069-2.752l32.962-19.859l32.962,19.859
			C282.793,401.003,276.367,401.951,269.893,401.951z M253.552,330.491l-36.617-36.617c-1.424-1.424-1.082-2.976-0.751-3.774
			c0.33-0.798,1.186-2.137,3.2-2.137h73.233c2.014,0,2.869,1.339,3.201,2.137c0.33,0.798,0.672,2.351-0.752,3.774l-36.617,36.617
			c-0.883,0.883-1.913,1.014-2.449,1.014C255.464,331.506,254.433,331.374,253.552,330.491z M362.482,163.5
			c-0.15,0.971-0.318,1.941-0.501,2.908c-0.154,0.81-0.319,1.618-0.493,2.427l-9.702,44.937c-1.583,7.33-2.385,14.849-2.385,22.346
			v9.206c0,1.009,0.019,2.016,0.047,3.022c0.006,0.204,0.015,0.406,0.022,0.61c0.03,0.892,0.071,1.781,0.123,2.669
			c0.005,0.086,0.01,0.171,0.016,0.257c0.927,15.193,5.066,29.807,12.086,43.027c-2.171,11.096-5.315,22.022-9.363,32.515
			l-4.322,11.203c-7.408,19.198-19.875,36.065-36.057,48.779c-2.576,2.025-5.3,3.839-8.128,5.462
			c-0.414-2.09-1.665-4.008-3.634-5.195l-36.356-21.904v-20.278c2.091-0.94,4.024-2.246,5.694-3.916l36.617-36.617
			c5.492-5.492,7.119-13.677,4.147-20.852c-2.972-7.175-9.91-11.811-17.677-11.811h-73.233c-7.766,0-14.705,4.636-17.677,11.811
			c-2.972,7.176-1.344,15.36,4.147,20.852l36.617,36.617c1.67,1.67,3.603,2.976,5.695,3.916v20.278l-36.356,21.904
			c-1.969,1.187-3.221,3.104-3.634,5.195c-2.828-1.622-5.551-3.438-8.128-5.463c-16.181-12.713-28.648-29.58-36.056-48.778
			l-4.323-11.203c-4.048-10.494-7.193-21.417-9.363-32.514c7.02-13.218,11.159-27.834,12.086-43.027
			c0.005-0.086,0.01-0.171,0.016-0.257c0.052-0.888,0.093-1.777,0.123-2.669c0.007-0.204,0.016-0.406,0.022-0.61
			c0.028-1.005,0.047-2.012,0.047-3.022v-9.206c0-7.5-0.802-15.018-2.385-22.346l-9.703-44.937
			c-0.021-0.096-0.038-0.192-0.058-0.287c-0.15-0.709-0.297-1.42-0.432-2.133c-0.927-4.881-1.43-9.806-1.529-14.728
			c-0.531-26.314,10.526-52.5,30.577-70.898l14.499-13.304c3.6-1.947,7.32-3.634,11.072-5.018l17.654-6.51
			c10.827-3.993,22.168-6.017,33.707-6.017c11.54,0,22.88,2.025,33.708,6.017l17.654,6.51c3.753,1.384,7.474,3.07,11.072,5.018
			l14.497,13.301c19.338,17.746,30.312,42.733,30.593,68.091C363.578,153.754,363.236,158.644,362.482,163.5z M414.868,252.869
			l-0.892,0.915c-12.519,12.833-20.996,28.907-24.511,46.486l-1.108,5.545c-4.364-4.821-8.135-10.051-11.319-15.581
			c-0.088-0.19-0.182-0.378-0.286-0.562c-6.459-11.439-10.333-24.167-11.381-37.181c-0.059-0.74-0.113-1.479-0.153-2.223
			c-0.024-0.435-0.046-0.869-0.064-1.305c-0.048-1.21-0.084-2.422-0.084-3.639v-9.206c0-1.597,0.043-3.195,0.127-4.792
			c0.256-4.789,0.893-9.563,1.904-14.247l2.426-11.234l7.276-33.702c0.201-0.931,0.39-1.864,0.569-2.804
			c0.196-1.033,0.372-2.069,0.536-3.106c0.05-0.314,0.094-0.63,0.141-0.945c0.11-0.739,0.213-1.477,0.306-2.217
			c0.044-0.347,0.087-0.694,0.127-1.04c0.09-0.772,0.169-1.545,0.242-2.317c0.026-0.276,0.055-0.553,0.079-0.828
			c0.089-1.04,0.165-2.082,0.223-3.124c0.01-0.178,0.015-0.354,0.024-0.532c0.044-0.867,0.077-1.735,0.1-2.602
			c0.008-0.333,0.013-0.667,0.019-1.001c0.011-0.735,0.017-1.471,0.013-2.206c-0.002-0.336-0.002-0.673-0.007-1.009
			c-0.013-0.842-0.036-1.683-0.067-2.524c-0.007-0.202-0.011-0.404-0.02-0.606c-0.046-1.039-0.108-2.078-0.184-3.116
			c-0.019-0.259-0.044-0.517-0.065-0.776c-0.064-0.785-0.134-1.569-0.214-2.353c-0.036-0.341-0.073-0.68-0.111-1.021
			c-0.083-0.735-0.173-1.47-0.272-2.203c-0.042-0.317-0.083-0.632-0.127-0.949c-0.139-0.977-0.289-1.953-0.454-2.925
			c-0.008-0.05-0.016-0.101-0.024-0.151c-0.177-1.026-0.371-2.047-0.577-3.068c-0.061-0.3-0.126-0.599-0.189-0.898
			c-0.154-0.731-0.313-1.459-0.483-2.188c-0.078-0.339-0.159-0.678-0.24-1.016c-0.179-0.739-0.367-1.475-0.56-2.211
			c-0.074-0.28-0.144-0.561-0.22-0.84c-0.274-1.002-0.558-2.002-0.86-2.995c-0.044-0.144-0.092-0.286-0.136-0.43
			c-0.262-0.852-0.535-1.701-0.817-2.547c-0.106-0.317-0.216-0.632-0.325-0.949c-0.238-0.69-0.483-1.38-0.734-2.066
			c-0.118-0.323-0.237-0.647-0.358-0.968c-0.286-0.759-0.583-1.516-0.887-2.269c-0.088-0.218-0.171-0.439-0.261-0.657
			c-0.395-0.962-0.803-1.919-1.226-2.871c-0.101-0.23-0.209-0.456-0.312-0.685c-0.328-0.727-0.663-1.451-1.008-2.172
			c-0.151-0.317-0.305-0.631-0.46-0.945c-0.322-0.657-0.651-1.31-0.985-1.961c-0.154-0.298-0.305-0.596-0.461-0.892
			c-0.432-0.822-0.874-1.639-1.328-2.45c-0.057-0.103-0.112-0.208-0.17-0.31c-0.513-0.912-1.042-1.816-1.582-2.713
			c-0.156-0.26-0.317-0.516-0.475-0.775c-0.397-0.649-0.799-1.293-1.21-1.935c-0.189-0.296-0.38-0.59-0.572-0.885
			c-0.417-0.638-0.842-1.271-1.273-1.902c-0.171-0.25-0.339-0.5-0.512-0.749c-0.07-0.1-0.137-0.204-0.208-0.304
			c18.317,10.925,40.133,26.961,58.547,49.042l5.821,8.281c10.13,14.413,15.485,31.343,15.485,48.959
			C439.062,215.762,430.469,236.877,414.868,252.869z"/>
	</g>
</g>
<g>
	<g>
		<path d="M498.525,502.683c-9.759-50.663-37.181-96.91-77.532-131.116c35.709-39.481,57.487-91.786,57.487-149.086
			C478.481,99.804,378.676,0,256,0S33.52,99.804,33.52,222.48c0,19.63,2.547,39.061,7.572,57.752
			c1.123,4.179,5.423,6.654,9.599,5.533c4.179-1.124,6.657-5.422,5.533-9.6c-4.668-17.364-7.034-35.428-7.034-53.685
			C49.19,108.445,141.965,15.67,256,15.67s206.81,92.775,206.81,206.81S370.036,429.291,256,429.291
			c-56.549,0-108.954-22.648-146.979-61.073c-0.15-0.239-0.312-0.474-0.491-0.701c-0.527-0.668-1.141-1.221-1.811-1.668
			c-17.644-18.412-32.051-40.295-42.14-64.936c-1.639-4.003-6.213-5.922-10.22-4.282c-4.005,1.639-5.922,6.215-4.282,10.22
			c9.819,23.982,23.627,45.854,40.793,64.834c-40.277,34.193-67.646,80.393-77.395,130.999c-0.442,2.295,0.164,4.669,1.653,6.471
			c1.489,1.803,3.703,2.847,6.041,2.847h98.411c0,0,0.001,0,0.002,0c0,0,0.001,0,0.002,0h272.829c0.003,0,0.005,0,0.008,0
			s0.005,0,0.008,0h98.404c2.337,0,4.553-1.044,6.041-2.847C498.362,507.351,498.967,504.978,498.525,502.683z M399.936,496.329
			v0.001c-3.138-38.082-28.6-51.401-29.752-51.984c-3.862-1.95-8.606-0.42-10.557,3.443c-1.951,3.862-0.436,8.559,3.426,10.51
			c0.808,0.427,18.298,10.032,21.133,38.03H127.821c0.297-2.858,0.751-5.635,1.393-8.364c0.989-4.212-1.623-8.429-5.836-9.42
			c-4.212-0.989-8.429,1.622-9.42,5.836c-0.917,3.903-1.541,7.857-1.888,11.947H30.883c10.569-43.771,35.432-83.53,70.929-113.381
			c8.874,8.517,18.488,16.335,28.777,23.365c37.005,25.283,80.371,38.646,125.41,38.646c59.738,0,114.047-23.673,154.055-62.123
			c35.569,29.863,60.481,69.667,71.061,113.492H399.936z"/>
	</g>
</g>
</svg>